G75*
%MOIN*%
%OFA0B0*%
%FSLAX24Y24*%
%IPPOS*%
%LPD*%
%AMOC8*
5,1,8,0,0,1.08239X$1,22.5*
%
%ADD10C,0.0000*%
%ADD11R,0.0220X0.0500*%
%ADD12R,0.0500X0.0220*%
%ADD13R,0.0984X0.0787*%
%ADD14R,0.1299X0.0787*%
%ADD15R,0.1220X0.0197*%
%ADD16R,0.0866X0.0236*%
%ADD17R,0.0354X0.0276*%
%ADD18R,0.0394X0.0433*%
%ADD19R,0.0433X0.0394*%
%ADD20R,0.2100X0.0760*%
%ADD21R,0.0591X0.0512*%
%ADD22R,0.0394X0.0276*%
%ADD23R,0.0276X0.0354*%
%ADD24R,0.0800X0.0800*%
%ADD25C,0.0800*%
%ADD26C,0.0740*%
%ADD27C,0.0600*%
%ADD28R,0.0394X0.0551*%
%ADD29C,0.0600*%
%ADD30OC8,0.0600*%
%ADD31C,0.0197*%
%ADD32C,0.0277*%
%ADD33C,0.0157*%
%ADD34C,0.0160*%
%ADD35C,0.0236*%
%ADD36C,0.0356*%
D10*
X002147Y001163D02*
X002147Y017305D01*
X020651Y017305D01*
X020651Y001163D01*
X002147Y001163D01*
X003033Y002738D02*
X003035Y002790D01*
X003041Y002842D01*
X003051Y002893D01*
X003064Y002943D01*
X003082Y002993D01*
X003103Y003040D01*
X003127Y003086D01*
X003156Y003130D01*
X003187Y003172D01*
X003221Y003211D01*
X003258Y003248D01*
X003298Y003281D01*
X003341Y003312D01*
X003385Y003339D01*
X003431Y003363D01*
X003480Y003383D01*
X003529Y003399D01*
X003580Y003412D01*
X003631Y003421D01*
X003683Y003426D01*
X003735Y003427D01*
X003787Y003424D01*
X003839Y003417D01*
X003890Y003406D01*
X003940Y003392D01*
X003989Y003373D01*
X004036Y003351D01*
X004081Y003326D01*
X004125Y003297D01*
X004166Y003265D01*
X004205Y003230D01*
X004240Y003192D01*
X004273Y003151D01*
X004303Y003109D01*
X004329Y003064D01*
X004352Y003017D01*
X004371Y002968D01*
X004387Y002918D01*
X004399Y002868D01*
X004407Y002816D01*
X004411Y002764D01*
X004411Y002712D01*
X004407Y002660D01*
X004399Y002608D01*
X004387Y002558D01*
X004371Y002508D01*
X004352Y002459D01*
X004329Y002412D01*
X004303Y002367D01*
X004273Y002325D01*
X004240Y002284D01*
X004205Y002246D01*
X004166Y002211D01*
X004125Y002179D01*
X004081Y002150D01*
X004036Y002125D01*
X003989Y002103D01*
X003940Y002084D01*
X003890Y002070D01*
X003839Y002059D01*
X003787Y002052D01*
X003735Y002049D01*
X003683Y002050D01*
X003631Y002055D01*
X003580Y002064D01*
X003529Y002077D01*
X003480Y002093D01*
X003431Y002113D01*
X003385Y002137D01*
X003341Y002164D01*
X003298Y002195D01*
X003258Y002228D01*
X003221Y002265D01*
X003187Y002304D01*
X003156Y002346D01*
X003127Y002390D01*
X003103Y002436D01*
X003082Y002483D01*
X003064Y002533D01*
X003051Y002583D01*
X003041Y002634D01*
X003035Y002686D01*
X003033Y002738D01*
X004136Y006163D02*
X004138Y006189D01*
X004144Y006215D01*
X004154Y006240D01*
X004167Y006263D01*
X004183Y006283D01*
X004203Y006301D01*
X004225Y006316D01*
X004248Y006328D01*
X004274Y006336D01*
X004300Y006340D01*
X004326Y006340D01*
X004352Y006336D01*
X004378Y006328D01*
X004402Y006316D01*
X004423Y006301D01*
X004443Y006283D01*
X004459Y006263D01*
X004472Y006240D01*
X004482Y006215D01*
X004488Y006189D01*
X004490Y006163D01*
X004488Y006137D01*
X004482Y006111D01*
X004472Y006086D01*
X004459Y006063D01*
X004443Y006043D01*
X004423Y006025D01*
X004401Y006010D01*
X004378Y005998D01*
X004352Y005990D01*
X004326Y005986D01*
X004300Y005986D01*
X004274Y005990D01*
X004248Y005998D01*
X004224Y006010D01*
X004203Y006025D01*
X004183Y006043D01*
X004167Y006063D01*
X004154Y006086D01*
X004144Y006111D01*
X004138Y006137D01*
X004136Y006163D01*
X004136Y007895D02*
X004138Y007921D01*
X004144Y007947D01*
X004154Y007972D01*
X004167Y007995D01*
X004183Y008015D01*
X004203Y008033D01*
X004225Y008048D01*
X004248Y008060D01*
X004274Y008068D01*
X004300Y008072D01*
X004326Y008072D01*
X004352Y008068D01*
X004378Y008060D01*
X004402Y008048D01*
X004423Y008033D01*
X004443Y008015D01*
X004459Y007995D01*
X004472Y007972D01*
X004482Y007947D01*
X004488Y007921D01*
X004490Y007895D01*
X004488Y007869D01*
X004482Y007843D01*
X004472Y007818D01*
X004459Y007795D01*
X004443Y007775D01*
X004423Y007757D01*
X004401Y007742D01*
X004378Y007730D01*
X004352Y007722D01*
X004326Y007718D01*
X004300Y007718D01*
X004274Y007722D01*
X004248Y007730D01*
X004224Y007742D01*
X004203Y007757D01*
X004183Y007775D01*
X004167Y007795D01*
X004154Y007818D01*
X004144Y007843D01*
X004138Y007869D01*
X004136Y007895D01*
X003033Y015730D02*
X003035Y015782D01*
X003041Y015834D01*
X003051Y015885D01*
X003064Y015935D01*
X003082Y015985D01*
X003103Y016032D01*
X003127Y016078D01*
X003156Y016122D01*
X003187Y016164D01*
X003221Y016203D01*
X003258Y016240D01*
X003298Y016273D01*
X003341Y016304D01*
X003385Y016331D01*
X003431Y016355D01*
X003480Y016375D01*
X003529Y016391D01*
X003580Y016404D01*
X003631Y016413D01*
X003683Y016418D01*
X003735Y016419D01*
X003787Y016416D01*
X003839Y016409D01*
X003890Y016398D01*
X003940Y016384D01*
X003989Y016365D01*
X004036Y016343D01*
X004081Y016318D01*
X004125Y016289D01*
X004166Y016257D01*
X004205Y016222D01*
X004240Y016184D01*
X004273Y016143D01*
X004303Y016101D01*
X004329Y016056D01*
X004352Y016009D01*
X004371Y015960D01*
X004387Y015910D01*
X004399Y015860D01*
X004407Y015808D01*
X004411Y015756D01*
X004411Y015704D01*
X004407Y015652D01*
X004399Y015600D01*
X004387Y015550D01*
X004371Y015500D01*
X004352Y015451D01*
X004329Y015404D01*
X004303Y015359D01*
X004273Y015317D01*
X004240Y015276D01*
X004205Y015238D01*
X004166Y015203D01*
X004125Y015171D01*
X004081Y015142D01*
X004036Y015117D01*
X003989Y015095D01*
X003940Y015076D01*
X003890Y015062D01*
X003839Y015051D01*
X003787Y015044D01*
X003735Y015041D01*
X003683Y015042D01*
X003631Y015047D01*
X003580Y015056D01*
X003529Y015069D01*
X003480Y015085D01*
X003431Y015105D01*
X003385Y015129D01*
X003341Y015156D01*
X003298Y015187D01*
X003258Y015220D01*
X003221Y015257D01*
X003187Y015296D01*
X003156Y015338D01*
X003127Y015382D01*
X003103Y015428D01*
X003082Y015475D01*
X003064Y015525D01*
X003051Y015575D01*
X003041Y015626D01*
X003035Y015678D01*
X003033Y015730D01*
X018387Y015730D02*
X018389Y015782D01*
X018395Y015834D01*
X018405Y015885D01*
X018418Y015935D01*
X018436Y015985D01*
X018457Y016032D01*
X018481Y016078D01*
X018510Y016122D01*
X018541Y016164D01*
X018575Y016203D01*
X018612Y016240D01*
X018652Y016273D01*
X018695Y016304D01*
X018739Y016331D01*
X018785Y016355D01*
X018834Y016375D01*
X018883Y016391D01*
X018934Y016404D01*
X018985Y016413D01*
X019037Y016418D01*
X019089Y016419D01*
X019141Y016416D01*
X019193Y016409D01*
X019244Y016398D01*
X019294Y016384D01*
X019343Y016365D01*
X019390Y016343D01*
X019435Y016318D01*
X019479Y016289D01*
X019520Y016257D01*
X019559Y016222D01*
X019594Y016184D01*
X019627Y016143D01*
X019657Y016101D01*
X019683Y016056D01*
X019706Y016009D01*
X019725Y015960D01*
X019741Y015910D01*
X019753Y015860D01*
X019761Y015808D01*
X019765Y015756D01*
X019765Y015704D01*
X019761Y015652D01*
X019753Y015600D01*
X019741Y015550D01*
X019725Y015500D01*
X019706Y015451D01*
X019683Y015404D01*
X019657Y015359D01*
X019627Y015317D01*
X019594Y015276D01*
X019559Y015238D01*
X019520Y015203D01*
X019479Y015171D01*
X019435Y015142D01*
X019390Y015117D01*
X019343Y015095D01*
X019294Y015076D01*
X019244Y015062D01*
X019193Y015051D01*
X019141Y015044D01*
X019089Y015041D01*
X019037Y015042D01*
X018985Y015047D01*
X018934Y015056D01*
X018883Y015069D01*
X018834Y015085D01*
X018785Y015105D01*
X018739Y015129D01*
X018695Y015156D01*
X018652Y015187D01*
X018612Y015220D01*
X018575Y015257D01*
X018541Y015296D01*
X018510Y015338D01*
X018481Y015382D01*
X018457Y015428D01*
X018436Y015475D01*
X018418Y015525D01*
X018405Y015575D01*
X018395Y015626D01*
X018389Y015678D01*
X018387Y015730D01*
X018387Y002738D02*
X018389Y002790D01*
X018395Y002842D01*
X018405Y002893D01*
X018418Y002943D01*
X018436Y002993D01*
X018457Y003040D01*
X018481Y003086D01*
X018510Y003130D01*
X018541Y003172D01*
X018575Y003211D01*
X018612Y003248D01*
X018652Y003281D01*
X018695Y003312D01*
X018739Y003339D01*
X018785Y003363D01*
X018834Y003383D01*
X018883Y003399D01*
X018934Y003412D01*
X018985Y003421D01*
X019037Y003426D01*
X019089Y003427D01*
X019141Y003424D01*
X019193Y003417D01*
X019244Y003406D01*
X019294Y003392D01*
X019343Y003373D01*
X019390Y003351D01*
X019435Y003326D01*
X019479Y003297D01*
X019520Y003265D01*
X019559Y003230D01*
X019594Y003192D01*
X019627Y003151D01*
X019657Y003109D01*
X019683Y003064D01*
X019706Y003017D01*
X019725Y002968D01*
X019741Y002918D01*
X019753Y002868D01*
X019761Y002816D01*
X019765Y002764D01*
X019765Y002712D01*
X019761Y002660D01*
X019753Y002608D01*
X019741Y002558D01*
X019725Y002508D01*
X019706Y002459D01*
X019683Y002412D01*
X019657Y002367D01*
X019627Y002325D01*
X019594Y002284D01*
X019559Y002246D01*
X019520Y002211D01*
X019479Y002179D01*
X019435Y002150D01*
X019390Y002125D01*
X019343Y002103D01*
X019294Y002084D01*
X019244Y002070D01*
X019193Y002059D01*
X019141Y002052D01*
X019089Y002049D01*
X019037Y002050D01*
X018985Y002055D01*
X018934Y002064D01*
X018883Y002077D01*
X018834Y002093D01*
X018785Y002113D01*
X018739Y002137D01*
X018695Y002164D01*
X018652Y002195D01*
X018612Y002228D01*
X018575Y002265D01*
X018541Y002304D01*
X018510Y002346D01*
X018481Y002390D01*
X018457Y002436D01*
X018436Y002483D01*
X018418Y002533D01*
X018405Y002583D01*
X018395Y002634D01*
X018389Y002686D01*
X018387Y002738D01*
D11*
X015651Y006166D03*
X015336Y006166D03*
X015021Y006166D03*
X014706Y006166D03*
X014391Y006166D03*
X014076Y006166D03*
X013761Y006166D03*
X013446Y006166D03*
X013446Y009546D03*
X013761Y009546D03*
X014076Y009546D03*
X014391Y009546D03*
X014706Y009546D03*
X015021Y009546D03*
X015336Y009546D03*
X015651Y009546D03*
D12*
X016239Y008958D03*
X016239Y008643D03*
X016239Y008328D03*
X016239Y008013D03*
X016239Y007698D03*
X016239Y007383D03*
X016239Y007069D03*
X016239Y006754D03*
X012859Y006754D03*
X012859Y007069D03*
X012859Y007383D03*
X012859Y007698D03*
X012859Y008013D03*
X012859Y008328D03*
X012859Y008643D03*
X012859Y008958D03*
D13*
X003131Y008781D03*
X003131Y005277D03*
D14*
X005454Y005277D03*
X005454Y008781D03*
D15*
X005494Y007659D03*
X005494Y007344D03*
X005494Y007029D03*
X005494Y006714D03*
X005494Y006399D03*
D16*
X007423Y011240D03*
X007423Y011740D03*
X007423Y012240D03*
X007423Y012740D03*
X009470Y012740D03*
X009470Y012240D03*
X009470Y011740D03*
X009470Y011240D03*
D17*
X006281Y010710D03*
X006281Y010198D03*
X014391Y004864D03*
X014391Y004352D03*
D18*
X010021Y004765D03*
X010021Y005435D03*
X009431Y006773D03*
X008761Y006773D03*
X008761Y007620D03*
X009431Y007620D03*
X007935Y005671D03*
X007935Y005002D03*
X008112Y010376D03*
X008781Y010376D03*
X006281Y011655D03*
X006281Y012324D03*
X011202Y012994D03*
X011202Y013663D03*
X018151Y009529D03*
X018820Y009529D03*
X018663Y012935D03*
X018663Y013604D03*
D19*
X011931Y008820D03*
X011261Y008820D03*
X016320Y004923D03*
X016320Y004254D03*
D20*
X016843Y012777D03*
X013043Y012777D03*
D21*
X006872Y005395D03*
X006872Y004411D03*
D22*
X007974Y004293D03*
X007974Y003919D03*
X007974Y003545D03*
X008919Y003545D03*
X008919Y004293D03*
D23*
X011419Y006478D03*
X011931Y006478D03*
D24*
X010612Y015966D03*
D25*
X008643Y015966D03*
D26*
X013298Y002147D03*
X014438Y002147D03*
D27*
X009946Y001887D02*
X009946Y002487D01*
X008946Y002487D02*
X008946Y001887D01*
X007946Y001887D02*
X007946Y002487D01*
X006946Y002487D02*
X006946Y001887D01*
D28*
X015553Y003171D03*
X016301Y003171D03*
X015927Y002305D03*
D29*
X017986Y007084D03*
D30*
X017986Y006084D03*
X017986Y005084D03*
X018986Y005084D03*
X018986Y006084D03*
X018986Y007084D03*
D31*
X018986Y008242D01*
X018151Y009076D01*
X018151Y009529D01*
X016419Y009529D01*
X016222Y009726D01*
X016222Y009765D01*
X017305Y010927D02*
X018565Y012069D01*
X018565Y012698D01*
X018742Y012876D01*
X018663Y012935D01*
X018565Y012698D02*
X016921Y012698D01*
X016843Y012777D01*
X013043Y012777D02*
X011261Y012777D01*
X011202Y012994D01*
X011202Y012088D01*
X009574Y012240D02*
X009470Y012240D01*
X009484Y012226D01*
X009484Y011754D02*
X009470Y011740D01*
X008250Y011242D02*
X008248Y011240D01*
X007423Y011240D01*
X006811Y011240D01*
X006281Y010710D01*
X006675Y007856D02*
X006478Y007659D01*
X005494Y007659D01*
X006832Y006006D02*
X006832Y005435D01*
X006872Y005395D01*
X008919Y004293D02*
X009116Y004293D01*
X009549Y004293D01*
X010021Y004765D01*
X010080Y004706D01*
X011006Y004706D01*
X011055Y004657D01*
X011931Y005533D01*
X011931Y006478D01*
X012206Y006754D01*
X012859Y006754D01*
X012859Y007069D02*
X012265Y007069D01*
X012226Y007029D01*
X012226Y006773D01*
X012859Y007069D02*
X013466Y007069D01*
X013565Y007167D01*
X013565Y007620D01*
X014470Y007620D01*
X014391Y007541D01*
X014391Y006166D01*
X014391Y004864D01*
X013761Y005494D02*
X013761Y006166D01*
X013446Y006166D02*
X012859Y006166D01*
X012777Y006163D01*
X013565Y007620D02*
X013565Y008250D01*
X013486Y008328D01*
X012859Y008328D01*
X012423Y008328D01*
X011931Y008820D01*
X011891Y008820D01*
X014470Y007620D02*
X014687Y007620D01*
X011399Y004313D02*
X011055Y004657D01*
X011399Y004313D02*
X011399Y002738D01*
X011990Y002147D01*
X013298Y002147D01*
X014438Y002147D02*
X014595Y002305D01*
X015927Y002305D01*
D32*
X017305Y004116D03*
X016320Y006202D03*
X015336Y007226D03*
X014687Y007620D03*
X015139Y008565D03*
X014509Y008958D03*
X014076Y008565D03*
X015651Y010297D03*
X016222Y009765D03*
X017305Y010927D03*
X018387Y010317D03*
X019037Y010927D03*
X017698Y008565D03*
X015297Y011478D03*
X014273Y011242D03*
X013840Y010848D03*
X013368Y010454D03*
X011202Y012088D03*
X008250Y011242D03*
X007502Y013604D03*
X006872Y008643D03*
X010021Y008643D03*
X010336Y006242D03*
X009155Y004982D03*
X008565Y004824D03*
X008525Y003919D03*
X012108Y003604D03*
X012659Y005100D03*
X013761Y005494D03*
X012777Y006163D03*
X014982Y012777D03*
D33*
X015654Y012706D02*
X014231Y012706D01*
X014231Y012862D02*
X015654Y012862D01*
X015654Y013018D02*
X014231Y013018D01*
X014231Y013173D02*
X015654Y013173D01*
X015654Y013215D02*
X015654Y012340D01*
X015735Y012258D01*
X017950Y012258D01*
X018031Y012340D01*
X018031Y012461D01*
X018327Y012461D01*
X018327Y012174D01*
X017258Y011204D01*
X017250Y011204D01*
X017148Y011162D01*
X017069Y011084D01*
X017027Y010982D01*
X017027Y010872D01*
X017069Y010770D01*
X017148Y010692D01*
X017250Y010649D01*
X017360Y010649D01*
X017462Y010692D01*
X017540Y010770D01*
X017573Y010850D01*
X018656Y011831D01*
X018663Y011831D01*
X018728Y011897D01*
X018797Y011959D01*
X018797Y011965D01*
X018802Y011970D01*
X018802Y012063D01*
X018806Y012155D01*
X018802Y012160D01*
X018802Y012579D01*
X018917Y012579D01*
X018999Y012661D01*
X018999Y013209D01*
X018965Y013242D01*
X018970Y013244D01*
X019003Y013278D01*
X019026Y013318D01*
X019039Y013364D01*
X019039Y013584D01*
X018683Y013584D01*
X018683Y013624D01*
X018643Y013624D01*
X018643Y013999D01*
X018443Y013999D01*
X018397Y013987D01*
X018356Y013963D01*
X018323Y013930D01*
X018300Y013889D01*
X018287Y013844D01*
X018287Y013624D01*
X018643Y013624D01*
X018643Y013584D01*
X018287Y013584D01*
X018287Y013364D01*
X018300Y013318D01*
X018323Y013278D01*
X018356Y013244D01*
X018361Y013242D01*
X018327Y013209D01*
X018327Y012936D01*
X018031Y012936D01*
X018031Y013215D01*
X017950Y013296D01*
X015735Y013296D01*
X015654Y013215D01*
X015654Y012550D02*
X014231Y012550D01*
X014231Y012394D02*
X015654Y012394D01*
X015352Y011755D02*
X015242Y011755D01*
X015140Y011713D01*
X015062Y011635D01*
X015019Y011533D01*
X015019Y011508D01*
X013829Y010317D01*
X013611Y010317D01*
X013645Y010399D01*
X013645Y010510D01*
X013603Y010612D01*
X013584Y010631D01*
X013665Y010631D01*
X013683Y010613D01*
X013785Y010571D01*
X013895Y010571D01*
X013997Y010613D01*
X014075Y010691D01*
X014118Y010793D01*
X014118Y010903D01*
X014075Y011005D01*
X014056Y011024D01*
X014098Y011024D01*
X014116Y011006D01*
X014218Y010964D01*
X014328Y010964D01*
X014430Y011006D01*
X014508Y011085D01*
X014551Y011187D01*
X014551Y011297D01*
X014508Y011399D01*
X014430Y011477D01*
X014328Y011519D01*
X014218Y011519D01*
X014116Y011477D01*
X014098Y011459D01*
X011253Y011459D01*
X010396Y012316D01*
X010396Y012316D01*
X010269Y012443D01*
X010014Y012443D01*
X009967Y012490D01*
X010042Y012564D01*
X010042Y012915D01*
X009961Y012997D01*
X008980Y012997D01*
X008898Y012915D01*
X008898Y012564D01*
X008973Y012490D01*
X008898Y012415D01*
X008898Y012064D01*
X008973Y011990D01*
X008915Y011932D01*
X008789Y011932D01*
X008662Y011804D01*
X008564Y011706D01*
X008564Y010731D01*
X008527Y010731D01*
X008446Y010651D01*
X008366Y010731D01*
X008283Y010731D01*
X008465Y010913D01*
X008465Y011065D01*
X008485Y011085D01*
X008527Y011187D01*
X008527Y011297D01*
X008485Y011399D01*
X008407Y011477D01*
X008305Y011519D01*
X008194Y011519D01*
X008092Y011477D01*
X007933Y011477D01*
X007920Y011490D01*
X007967Y011536D01*
X008103Y011536D01*
X008703Y012136D01*
X008703Y014577D01*
X009875Y015749D01*
X010073Y015749D01*
X010073Y015509D01*
X010154Y015427D01*
X011069Y015427D01*
X011151Y015509D01*
X011151Y016424D01*
X011069Y016505D01*
X010154Y016505D01*
X010073Y016424D01*
X010073Y016184D01*
X009695Y016184D01*
X008467Y014956D01*
X008467Y015010D01*
X008861Y015404D01*
X008861Y015473D01*
X008948Y015509D01*
X009100Y015661D01*
X009182Y015859D01*
X009182Y016073D01*
X009100Y016271D01*
X008948Y016423D01*
X008750Y016505D01*
X008536Y016505D01*
X008338Y016423D01*
X008187Y016271D01*
X008105Y016073D01*
X008105Y015859D01*
X008187Y015661D01*
X008338Y015509D01*
X008348Y015506D01*
X008160Y015317D01*
X008032Y015190D01*
X008032Y012891D01*
X008022Y012927D01*
X007999Y012968D01*
X007966Y013001D01*
X007925Y013024D01*
X007879Y013037D01*
X007423Y013037D01*
X007423Y012740D01*
X007423Y012740D01*
X007423Y013037D01*
X006966Y013037D01*
X006921Y013024D01*
X006880Y013001D01*
X006847Y012968D01*
X006823Y012927D01*
X006811Y012881D01*
X006811Y012740D01*
X007423Y012740D01*
X007423Y012740D01*
X006811Y012740D01*
X006811Y012598D01*
X006823Y012553D01*
X006829Y012542D01*
X006617Y012542D01*
X006617Y012598D01*
X006535Y012680D01*
X006027Y012680D01*
X005946Y012598D01*
X005946Y012050D01*
X006006Y011990D01*
X005946Y011929D01*
X005946Y011381D01*
X006027Y011300D01*
X006535Y011300D01*
X006222Y010987D01*
X006046Y010987D01*
X005965Y010905D01*
X005965Y010515D01*
X005998Y010482D01*
X005994Y010479D01*
X005961Y010446D01*
X005937Y010405D01*
X005925Y010360D01*
X005925Y010198D01*
X005925Y010037D01*
X005937Y009992D01*
X005961Y009951D01*
X005994Y009918D01*
X006035Y009894D01*
X006080Y009882D01*
X006281Y009882D01*
X006281Y010198D01*
X006281Y010198D01*
X006281Y009882D01*
X006482Y009882D01*
X006527Y009894D01*
X006568Y009918D01*
X006601Y009951D01*
X006625Y009992D01*
X006637Y010037D01*
X006637Y010198D01*
X006281Y010198D01*
X005925Y010198D01*
X006281Y010198D01*
X006281Y010198D01*
X006281Y010198D01*
X006637Y010198D01*
X006637Y010360D01*
X006625Y010405D01*
X006601Y010446D01*
X006568Y010479D01*
X006564Y010482D01*
X006597Y010515D01*
X006597Y010691D01*
X006909Y011003D01*
X006913Y011003D01*
X006932Y010983D01*
X007913Y010983D01*
X007933Y011003D01*
X007939Y011003D01*
X007923Y010987D01*
X007796Y010859D01*
X007796Y010669D01*
X007776Y010650D01*
X007776Y010102D01*
X007857Y010020D01*
X008366Y010020D01*
X008446Y010101D01*
X008527Y010020D01*
X009035Y010020D01*
X009117Y010102D01*
X009117Y010650D01*
X009035Y010731D01*
X008999Y010731D01*
X008999Y010983D01*
X009961Y010983D01*
X010000Y011022D01*
X010091Y011022D01*
X010876Y010237D01*
X013193Y010237D01*
X013211Y010219D01*
X013313Y010177D01*
X013334Y010177D01*
X013229Y010072D01*
X013229Y009885D01*
X013198Y009853D01*
X013198Y009238D01*
X013279Y009157D01*
X013544Y009157D01*
X013544Y009065D01*
X013621Y008988D01*
X013621Y008986D01*
X013858Y008750D01*
X013858Y008738D01*
X013841Y008722D01*
X013799Y008620D01*
X013799Y008509D01*
X013841Y008407D01*
X013919Y008329D01*
X014021Y008287D01*
X014132Y008287D01*
X014234Y008329D01*
X014312Y008407D01*
X014354Y008509D01*
X014354Y008620D01*
X014312Y008722D01*
X014295Y008738D01*
X014295Y008780D01*
X014352Y008723D01*
X014454Y008681D01*
X014565Y008681D01*
X014667Y008723D01*
X014684Y008741D01*
X014923Y008741D01*
X014904Y008722D01*
X014862Y008620D01*
X014862Y008509D01*
X014904Y008407D01*
X014982Y008329D01*
X015084Y008287D01*
X015129Y008287D01*
X015255Y008179D01*
X015324Y008110D01*
X015336Y008110D01*
X015342Y008105D01*
X015407Y008110D01*
X015850Y008110D01*
X015850Y006586D01*
X015931Y006505D01*
X016546Y006505D01*
X016578Y006536D01*
X016742Y006536D01*
X017087Y006191D01*
X017087Y004291D01*
X017069Y004273D01*
X017027Y004171D01*
X017027Y004061D01*
X017069Y003959D01*
X017148Y003881D01*
X017250Y003838D01*
X017360Y003838D01*
X017462Y003881D01*
X017540Y003959D01*
X017582Y004061D01*
X017582Y004171D01*
X017540Y004273D01*
X017522Y004291D01*
X017522Y006240D01*
X017547Y006215D01*
X017547Y005903D01*
X017804Y005646D01*
X018168Y005646D01*
X018425Y005903D01*
X018425Y006266D01*
X018168Y006523D01*
X017855Y006523D01*
X017030Y007348D01*
X017030Y007823D01*
X017323Y007530D01*
X017451Y007402D01*
X017683Y007402D01*
X017614Y007333D01*
X017547Y007172D01*
X017547Y006997D01*
X017614Y006836D01*
X017737Y006712D01*
X017899Y006646D01*
X018073Y006646D01*
X018234Y006712D01*
X018268Y006746D01*
X018268Y006486D01*
X018396Y006359D01*
X018404Y006359D01*
X018547Y006215D01*
X018547Y005903D01*
X018804Y005646D01*
X019168Y005646D01*
X019425Y005903D01*
X019425Y006266D01*
X019168Y006523D01*
X018855Y006523D01*
X018703Y006674D01*
X018703Y006746D01*
X018804Y006646D01*
X019168Y006646D01*
X019425Y006903D01*
X019425Y007266D01*
X019223Y007468D01*
X019223Y008340D01*
X019084Y008479D01*
X018389Y009174D01*
X018405Y009174D01*
X018486Y009254D01*
X018566Y009174D01*
X019075Y009174D01*
X019156Y009255D01*
X019156Y009557D01*
X019254Y009656D01*
X019254Y010752D01*
X019272Y010770D01*
X019314Y010872D01*
X019314Y010982D01*
X019272Y011084D01*
X019194Y011162D01*
X019092Y011204D01*
X018982Y011204D01*
X018880Y011162D01*
X018802Y011084D01*
X018760Y010982D01*
X018760Y010872D01*
X018802Y010770D01*
X018820Y010752D01*
X018820Y009884D01*
X018566Y009884D01*
X018486Y009804D01*
X018405Y009884D01*
X017897Y009884D01*
X017816Y009803D01*
X017816Y009766D01*
X016517Y009766D01*
X016500Y009784D01*
X016500Y009821D01*
X016457Y009923D01*
X016379Y010001D01*
X016277Y010043D01*
X016167Y010043D01*
X016065Y010001D01*
X015987Y009923D01*
X015945Y009821D01*
X015945Y009710D01*
X015987Y009608D01*
X016065Y009530D01*
X016095Y009518D01*
X016182Y009431D01*
X016321Y009292D01*
X017816Y009292D01*
X017816Y009255D01*
X017897Y009174D01*
X017914Y009174D01*
X017914Y008978D01*
X018749Y008143D01*
X018749Y007468D01*
X018703Y007422D01*
X018703Y007434D01*
X018576Y007562D01*
X018300Y007837D01*
X017631Y007837D01*
X017325Y008143D01*
X017325Y008733D01*
X017198Y008861D01*
X016883Y009176D01*
X016578Y009176D01*
X016546Y009207D01*
X015931Y009207D01*
X015850Y009126D01*
X015850Y008870D01*
X015672Y009048D01*
X015563Y009157D01*
X015819Y009157D01*
X015900Y009238D01*
X015900Y009853D01*
X015869Y009885D01*
X015869Y010099D01*
X018212Y010099D01*
X018230Y010081D01*
X018332Y010039D01*
X018443Y010039D01*
X018545Y010081D01*
X018623Y010159D01*
X018665Y010261D01*
X018665Y010372D01*
X018623Y010474D01*
X018545Y010552D01*
X018443Y010594D01*
X018332Y010594D01*
X018230Y010552D01*
X018212Y010534D01*
X015804Y010534D01*
X015706Y010574D01*
X015596Y010574D01*
X015494Y010532D01*
X015416Y010454D01*
X015374Y010352D01*
X015374Y010242D01*
X015416Y010140D01*
X015434Y010122D01*
X015434Y009935D01*
X014061Y009935D01*
X014136Y010010D01*
X015327Y011200D01*
X015352Y011200D01*
X015454Y011243D01*
X015532Y011321D01*
X015574Y011423D01*
X015574Y011533D01*
X015532Y011635D01*
X015454Y011713D01*
X015352Y011755D01*
X015541Y011614D02*
X017710Y011614D01*
X017882Y011770D02*
X010943Y011770D01*
X011045Y011853D02*
X010967Y011931D01*
X010925Y012033D01*
X010925Y012143D01*
X010965Y012241D01*
X010965Y012638D01*
X010948Y012638D01*
X010867Y012720D01*
X010867Y013268D01*
X010900Y013301D01*
X010896Y013303D01*
X010862Y013337D01*
X010839Y013377D01*
X010827Y013423D01*
X010827Y013643D01*
X011183Y013643D01*
X011183Y013683D01*
X011183Y014058D01*
X010982Y014058D01*
X010937Y014046D01*
X010896Y014023D01*
X010862Y013989D01*
X010839Y013949D01*
X010827Y013903D01*
X010827Y013683D01*
X011183Y013683D01*
X011222Y013683D01*
X011222Y014058D01*
X011423Y014058D01*
X011468Y014046D01*
X011509Y014023D01*
X011542Y013989D01*
X011566Y013949D01*
X011578Y013903D01*
X011578Y013683D01*
X011222Y013683D01*
X011222Y013643D01*
X011578Y013643D01*
X011578Y013423D01*
X011566Y013377D01*
X011542Y013337D01*
X011509Y013303D01*
X011505Y013301D01*
X011538Y013268D01*
X011538Y013014D01*
X011854Y013014D01*
X011854Y013215D01*
X011935Y013296D01*
X014150Y013296D01*
X014231Y013215D01*
X014231Y012340D01*
X014150Y012258D01*
X011935Y012258D01*
X011854Y012340D01*
X011854Y012540D01*
X011440Y012540D01*
X011440Y012241D01*
X011480Y012143D01*
X011480Y012033D01*
X011438Y011931D01*
X011360Y011853D01*
X011258Y011811D01*
X011147Y011811D01*
X011045Y011853D01*
X010972Y011926D02*
X010787Y011926D01*
X010925Y012082D02*
X010631Y012082D01*
X010475Y012238D02*
X010964Y012238D01*
X010965Y012394D02*
X010319Y012394D01*
X010179Y012226D02*
X011163Y011242D01*
X014273Y011242D01*
X014156Y010990D02*
X014082Y010990D01*
X014118Y010834D02*
X014345Y010834D01*
X014390Y010990D02*
X014501Y010990D01*
X014534Y011146D02*
X014657Y011146D01*
X014549Y011302D02*
X014813Y011302D01*
X014969Y011458D02*
X014450Y011458D01*
X015053Y011614D02*
X011099Y011614D01*
X011432Y011926D02*
X018054Y011926D01*
X018226Y012082D02*
X011480Y012082D01*
X011441Y012238D02*
X018327Y012238D01*
X018327Y012394D02*
X018031Y012394D01*
X018031Y013018D02*
X018327Y013018D01*
X018327Y013173D02*
X018031Y013173D01*
X018297Y013329D02*
X011535Y013329D01*
X011538Y013173D02*
X011854Y013173D01*
X011854Y013018D02*
X011538Y013018D01*
X011578Y013485D02*
X018287Y013485D01*
X018287Y013641D02*
X011578Y013641D01*
X011578Y013797D02*
X018287Y013797D01*
X018346Y013953D02*
X011563Y013953D01*
X011222Y013953D02*
X011183Y013953D01*
X011183Y013797D02*
X011222Y013797D01*
X010827Y013797D02*
X008703Y013797D01*
X008703Y013641D02*
X010827Y013641D01*
X010827Y013485D02*
X008703Y013485D01*
X008703Y013329D02*
X010870Y013329D01*
X010867Y013173D02*
X008703Y013173D01*
X008703Y013018D02*
X010867Y013018D01*
X010867Y012862D02*
X010042Y012862D01*
X010042Y012706D02*
X010881Y012706D01*
X010965Y012550D02*
X010027Y012550D01*
X010179Y012226D02*
X009484Y012226D01*
X008898Y012238D02*
X008703Y012238D01*
X008703Y012394D02*
X008898Y012394D01*
X008913Y012550D02*
X008703Y012550D01*
X008703Y012706D02*
X008898Y012706D01*
X008898Y012862D02*
X008703Y012862D01*
X008250Y012502D02*
X008013Y012265D01*
X007448Y012265D01*
X007423Y012240D01*
X007423Y012324D01*
X006281Y012324D01*
X005946Y012394D02*
X002326Y012394D01*
X002326Y012550D02*
X005946Y012550D01*
X005946Y012238D02*
X002326Y012238D01*
X002326Y012082D02*
X005946Y012082D01*
X005946Y011926D02*
X002326Y011926D01*
X002326Y011770D02*
X005946Y011770D01*
X005946Y011614D02*
X002326Y011614D01*
X002326Y011458D02*
X005946Y011458D01*
X006025Y011302D02*
X002326Y011302D01*
X002326Y011146D02*
X006381Y011146D01*
X006225Y010990D02*
X002326Y010990D01*
X002326Y010834D02*
X005965Y010834D01*
X005965Y010678D02*
X002326Y010678D01*
X002326Y010522D02*
X005965Y010522D01*
X005927Y010366D02*
X002326Y010366D01*
X002326Y010210D02*
X005925Y010210D01*
X005925Y010054D02*
X002326Y010054D01*
X002326Y009898D02*
X006028Y009898D01*
X006281Y009898D02*
X006281Y009898D01*
X006281Y010054D02*
X006281Y010054D01*
X006534Y009898D02*
X013229Y009898D01*
X013229Y010054D02*
X009069Y010054D01*
X009117Y010210D02*
X013233Y010210D01*
X013446Y009982D02*
X013446Y009546D01*
X013198Y009586D02*
X002326Y009586D01*
X002326Y009742D02*
X013198Y009742D01*
X013198Y009430D02*
X002326Y009430D01*
X002326Y009274D02*
X002542Y009274D01*
X002582Y009314D02*
X002501Y009232D01*
X002501Y008330D01*
X002582Y008249D01*
X003681Y008249D01*
X003762Y008330D01*
X003762Y009232D01*
X003681Y009314D01*
X002582Y009314D01*
X002501Y009118D02*
X002326Y009118D01*
X002326Y008962D02*
X002501Y008962D01*
X002501Y008806D02*
X002326Y008806D01*
X002326Y008650D02*
X002501Y008650D01*
X002501Y008494D02*
X002326Y008494D01*
X002326Y008338D02*
X002501Y008338D01*
X002326Y008182D02*
X004096Y008182D01*
X004111Y008197D02*
X004011Y008097D01*
X003957Y007966D01*
X003957Y007824D01*
X004011Y007694D01*
X004111Y007594D01*
X004242Y007539D01*
X004383Y007539D01*
X004514Y007594D01*
X004614Y007694D01*
X004669Y007824D01*
X004669Y007966D01*
X004614Y008097D01*
X004514Y008197D01*
X004383Y008251D01*
X004242Y008251D01*
X004111Y008197D01*
X003982Y008026D02*
X002326Y008026D01*
X002326Y007870D02*
X003957Y007870D01*
X004002Y007714D02*
X002326Y007714D01*
X002326Y007558D02*
X004196Y007558D01*
X004429Y007558D02*
X004745Y007558D01*
X004745Y007503D02*
X004746Y007502D01*
X004745Y007500D01*
X004745Y007188D01*
X004746Y007187D01*
X004745Y007185D01*
X004745Y006873D01*
X004746Y006872D01*
X004745Y006870D01*
X004745Y006612D01*
X004740Y006607D01*
X004717Y006567D01*
X004705Y006521D01*
X004705Y006399D01*
X004705Y006277D01*
X004717Y006232D01*
X004740Y006191D01*
X004774Y006158D01*
X004814Y006134D01*
X004860Y006122D01*
X005494Y006122D01*
X006127Y006122D01*
X006173Y006134D01*
X006214Y006158D01*
X006247Y006191D01*
X006270Y006232D01*
X006283Y006277D01*
X006283Y006399D01*
X005494Y006399D01*
X005494Y006399D01*
X005494Y006122D01*
X005494Y006399D01*
X005494Y006399D01*
X006283Y006399D01*
X006283Y006521D01*
X006270Y006567D01*
X006247Y006607D01*
X006243Y006612D01*
X006243Y006812D01*
X006939Y006812D01*
X007048Y006703D01*
X007175Y006575D01*
X008426Y006575D01*
X008426Y006499D01*
X008507Y006418D01*
X009016Y006418D01*
X009096Y006498D01*
X009176Y006418D01*
X009685Y006418D01*
X009766Y006499D01*
X009766Y006556D01*
X010131Y006556D01*
X010209Y006634D01*
X010281Y006634D01*
X010398Y006682D01*
X010487Y006771D01*
X010535Y006887D01*
X010535Y007013D01*
X010487Y007130D01*
X010398Y007219D01*
X010281Y007267D01*
X010155Y007267D01*
X010039Y007219D01*
X009949Y007130D01*
X009901Y007013D01*
X009901Y006991D01*
X009766Y006991D01*
X009766Y007047D01*
X009685Y007129D01*
X009176Y007129D01*
X009096Y007048D01*
X009016Y007129D01*
X008507Y007129D01*
X008426Y007047D01*
X008426Y007010D01*
X007355Y007010D01*
X007179Y007187D01*
X007395Y007402D01*
X008426Y007402D01*
X008426Y007346D01*
X008507Y007264D01*
X009016Y007264D01*
X009096Y007345D01*
X009176Y007264D01*
X009685Y007264D01*
X009766Y007346D01*
X009766Y007402D01*
X010600Y007402D01*
X010955Y007048D01*
X011726Y007048D01*
X011844Y007166D01*
X012027Y007166D01*
X011989Y007127D01*
X011989Y006871D01*
X011911Y006794D01*
X011735Y006794D01*
X011702Y006761D01*
X011700Y006765D01*
X011666Y006798D01*
X011626Y006822D01*
X011580Y006834D01*
X011419Y006834D01*
X011419Y006478D01*
X011419Y006478D01*
X011419Y006122D01*
X011580Y006122D01*
X011626Y006134D01*
X011666Y006158D01*
X011694Y006185D01*
X011694Y005631D01*
X011006Y004943D01*
X010357Y004943D01*
X010357Y005039D01*
X010324Y005073D01*
X010328Y005075D01*
X010361Y005108D01*
X010385Y005149D01*
X010397Y005195D01*
X010397Y005415D01*
X010041Y005415D01*
X010041Y005454D01*
X010397Y005454D01*
X010397Y005675D01*
X010385Y005720D01*
X010361Y005761D01*
X010328Y005794D01*
X010287Y005818D01*
X010242Y005830D01*
X010041Y005830D01*
X010041Y005454D01*
X010002Y005454D01*
X010002Y005415D01*
X009646Y005415D01*
X009646Y005195D01*
X009658Y005149D01*
X009681Y005108D01*
X009715Y005075D01*
X009719Y005073D01*
X009686Y005039D01*
X009686Y004765D01*
X009451Y004530D01*
X009412Y004530D01*
X009412Y004877D01*
X009433Y004927D01*
X009433Y005037D01*
X009390Y005139D01*
X009312Y005217D01*
X009210Y005259D01*
X009100Y005259D01*
X008998Y005217D01*
X008920Y005139D01*
X008878Y005037D01*
X008878Y004927D01*
X008898Y004877D01*
X008898Y004569D01*
X008665Y004569D01*
X008583Y004488D01*
X008583Y004098D01*
X008665Y004016D01*
X009173Y004016D01*
X009211Y004054D01*
X009214Y004056D01*
X009647Y004056D01*
X009786Y004195D01*
X010001Y004410D01*
X010276Y004410D01*
X010335Y004469D01*
X010907Y004469D01*
X010956Y004420D01*
X010956Y004420D01*
X011162Y004214D01*
X011162Y002640D01*
X011301Y002501D01*
X011892Y001910D01*
X012845Y001910D01*
X012866Y001859D01*
X013010Y001716D01*
X013197Y001639D01*
X013399Y001639D01*
X013586Y001716D01*
X013729Y001859D01*
X013806Y002046D01*
X013806Y002248D01*
X013729Y002435D01*
X013586Y002579D01*
X013399Y002656D01*
X013197Y002656D01*
X013010Y002579D01*
X012866Y002435D01*
X012845Y002384D01*
X012088Y002384D01*
X011636Y002836D01*
X011636Y004411D01*
X011390Y004657D01*
X012168Y005435D01*
X012168Y006204D01*
X012207Y006243D01*
X012207Y006419D01*
X012305Y006516D01*
X012540Y006516D01*
X012551Y006505D01*
X013166Y006505D01*
X013248Y006586D01*
X013248Y006831D01*
X013564Y006831D01*
X013703Y006970D01*
X013802Y007069D01*
X013802Y007383D01*
X014154Y007383D01*
X014154Y006595D01*
X014076Y006595D01*
X013943Y006595D01*
X013897Y006582D01*
X013857Y006559D01*
X013852Y006555D01*
X013279Y006555D01*
X013198Y006473D01*
X013198Y006403D01*
X012952Y006403D01*
X012949Y006406D01*
X012917Y006405D01*
X012832Y006440D01*
X012722Y006440D01*
X012620Y006398D01*
X012542Y006320D01*
X012500Y006218D01*
X012500Y006108D01*
X012542Y006006D01*
X012620Y005928D01*
X012722Y005886D01*
X012832Y005886D01*
X012934Y005928D01*
X012935Y005929D01*
X013198Y005929D01*
X013198Y005858D01*
X013279Y005777D01*
X013524Y005777D01*
X013524Y005646D01*
X013484Y005549D01*
X013484Y005439D01*
X013526Y005337D01*
X013604Y005258D01*
X013706Y005216D01*
X013817Y005216D01*
X013919Y005258D01*
X013997Y005337D01*
X014039Y005439D01*
X014039Y005549D01*
X013999Y005646D01*
X013999Y005737D01*
X014076Y005737D01*
X014076Y006166D01*
X014076Y006595D01*
X014076Y006166D01*
X014076Y006166D01*
X014076Y006166D01*
X014076Y005737D01*
X014154Y005737D01*
X014154Y005138D01*
X014075Y005059D01*
X014075Y004669D01*
X014109Y004635D01*
X014104Y004633D01*
X014071Y004600D01*
X014048Y004559D01*
X014035Y004513D01*
X014035Y004352D01*
X014391Y004352D01*
X014391Y004352D01*
X014035Y004352D01*
X014035Y004191D01*
X014048Y004145D01*
X014071Y004104D01*
X014104Y004071D01*
X014145Y004048D01*
X014191Y004035D01*
X014391Y004035D01*
X014391Y004352D01*
X014391Y004352D01*
X014391Y004035D01*
X014592Y004035D01*
X014637Y004048D01*
X014678Y004071D01*
X014712Y004104D01*
X014735Y004145D01*
X014747Y004191D01*
X014747Y004352D01*
X014747Y004513D01*
X014735Y004559D01*
X014712Y004600D01*
X014678Y004633D01*
X014674Y004635D01*
X014707Y004669D01*
X014707Y005059D01*
X014629Y005138D01*
X014629Y005777D01*
X015434Y005777D01*
X015434Y004403D01*
X014852Y003821D01*
X012283Y003821D01*
X012265Y003839D01*
X012163Y003881D01*
X012053Y003881D01*
X011951Y003839D01*
X011873Y003761D01*
X011830Y003659D01*
X011830Y003549D01*
X011873Y003447D01*
X011951Y003369D01*
X012053Y003326D01*
X012163Y003326D01*
X012265Y003369D01*
X012283Y003386D01*
X015033Y003386D01*
X015741Y004095D01*
X015869Y004223D01*
X015869Y005827D01*
X015900Y005858D01*
X015900Y006473D01*
X015819Y006555D01*
X014629Y006555D01*
X014629Y007343D01*
X014631Y007342D01*
X014742Y007342D01*
X014844Y007384D01*
X014922Y007463D01*
X014964Y007564D01*
X014964Y007675D01*
X014922Y007777D01*
X014844Y007855D01*
X014742Y007897D01*
X014631Y007897D01*
X014534Y007857D01*
X013802Y007857D01*
X013802Y008348D01*
X013663Y008487D01*
X013584Y008566D01*
X013248Y008566D01*
X013248Y009126D01*
X013166Y009207D01*
X012551Y009207D01*
X012470Y009126D01*
X012470Y008617D01*
X012286Y008801D01*
X012286Y009075D01*
X012205Y009156D01*
X011657Y009156D01*
X011623Y009123D01*
X011621Y009127D01*
X011588Y009160D01*
X011547Y009184D01*
X011501Y009196D01*
X011281Y009196D01*
X011281Y008840D01*
X011242Y008840D01*
X011242Y009196D01*
X011021Y009196D01*
X010976Y009184D01*
X010935Y009160D01*
X010902Y009127D01*
X010878Y009086D01*
X010866Y009041D01*
X010866Y008840D01*
X011242Y008840D01*
X011242Y008801D01*
X011281Y008801D01*
X011281Y008445D01*
X011501Y008445D01*
X011547Y008457D01*
X011588Y008481D01*
X011621Y008514D01*
X011623Y008518D01*
X011657Y008485D01*
X011931Y008485D01*
X012186Y008230D01*
X012325Y008091D01*
X012430Y008091D01*
X012430Y008013D01*
X012430Y007916D01*
X011748Y007916D01*
X011697Y007967D01*
X011580Y008015D01*
X011454Y008015D01*
X011338Y007967D01*
X011249Y007878D01*
X011200Y007761D01*
X011200Y007635D01*
X011249Y007519D01*
X011285Y007483D01*
X011135Y007483D01*
X010908Y007710D01*
X010781Y007837D01*
X009766Y007837D01*
X009766Y007894D01*
X009685Y007975D01*
X009176Y007975D01*
X009096Y007895D01*
X009016Y007975D01*
X008507Y007975D01*
X008426Y007894D01*
X008426Y007837D01*
X007215Y007837D01*
X007087Y007710D01*
X006939Y007562D01*
X006792Y007562D01*
X006854Y007587D01*
X006943Y007676D01*
X006992Y007793D01*
X006992Y007919D01*
X006943Y008035D01*
X006854Y008125D01*
X006738Y008173D01*
X006612Y008173D01*
X006495Y008125D01*
X006406Y008035D01*
X006358Y007919D01*
X006358Y007896D01*
X004826Y007896D01*
X004745Y007815D01*
X004745Y007503D01*
X004745Y007402D02*
X002326Y007402D01*
X002326Y007246D02*
X004745Y007246D01*
X004745Y007090D02*
X002326Y007090D01*
X002326Y006934D02*
X004745Y006934D01*
X004745Y006778D02*
X002326Y006778D01*
X002326Y006622D02*
X004745Y006622D01*
X004705Y006466D02*
X004510Y006466D01*
X004514Y006465D02*
X004383Y006519D01*
X004242Y006519D01*
X004111Y006465D01*
X004011Y006365D01*
X003957Y006234D01*
X003957Y006092D01*
X004011Y005961D01*
X004111Y005861D01*
X004242Y005807D01*
X004383Y005807D01*
X004514Y005861D01*
X004614Y005961D01*
X004669Y006092D01*
X004669Y006234D01*
X004614Y006365D01*
X004514Y006465D01*
X004637Y006310D02*
X004705Y006310D01*
X004705Y006399D02*
X005494Y006399D01*
X005494Y006399D01*
X004705Y006399D01*
X004669Y006154D02*
X004780Y006154D01*
X004630Y005998D02*
X006515Y005998D01*
X006515Y005942D02*
X006515Y006069D01*
X006564Y006185D01*
X006653Y006274D01*
X006769Y006322D01*
X006895Y006322D01*
X007012Y006274D01*
X007101Y006185D01*
X007149Y006069D01*
X007149Y005942D01*
X007101Y005826D01*
X007069Y005795D01*
X007069Y005790D01*
X007224Y005790D01*
X007306Y005709D01*
X007306Y005082D01*
X007224Y005001D01*
X006519Y005001D01*
X006438Y005082D01*
X006438Y005709D01*
X006519Y005790D01*
X006595Y005790D01*
X006595Y005795D01*
X006564Y005826D01*
X006515Y005942D01*
X006557Y005842D02*
X004469Y005842D01*
X004666Y005728D02*
X004666Y004826D01*
X004747Y004745D01*
X006161Y004745D01*
X006243Y004826D01*
X006243Y005728D01*
X006161Y005810D01*
X004747Y005810D01*
X004666Y005728D01*
X004666Y005686D02*
X003762Y005686D01*
X003762Y005728D02*
X003681Y005810D01*
X002582Y005810D01*
X002501Y005728D01*
X002501Y004826D01*
X002582Y004745D01*
X003681Y004745D01*
X003762Y004826D01*
X003762Y005728D01*
X003762Y005530D02*
X004666Y005530D01*
X004666Y005374D02*
X003762Y005374D01*
X003762Y005218D02*
X004666Y005218D01*
X004666Y005063D02*
X003762Y005063D01*
X003762Y004907D02*
X004666Y004907D01*
X004741Y004751D02*
X003687Y004751D01*
X002576Y004751D02*
X002326Y004751D01*
X002326Y004907D02*
X002501Y004907D01*
X002501Y005063D02*
X002326Y005063D01*
X002326Y005218D02*
X002501Y005218D01*
X002501Y005374D02*
X002326Y005374D01*
X002326Y005530D02*
X002501Y005530D01*
X002501Y005686D02*
X002326Y005686D01*
X002326Y005842D02*
X004157Y005842D01*
X003996Y005998D02*
X002326Y005998D01*
X002326Y006154D02*
X003957Y006154D01*
X003988Y006310D02*
X002326Y006310D01*
X002326Y006466D02*
X004115Y006466D01*
X004623Y007714D02*
X004745Y007714D01*
X004800Y007870D02*
X004669Y007870D01*
X004644Y008026D02*
X006402Y008026D01*
X006161Y008249D02*
X006243Y008330D01*
X006243Y009232D01*
X006161Y009314D01*
X004747Y009314D01*
X004666Y009232D01*
X004666Y008330D01*
X004747Y008249D01*
X006161Y008249D01*
X006243Y008338D02*
X012078Y008338D01*
X012186Y008230D02*
X012186Y008230D01*
X012234Y008182D02*
X004529Y008182D01*
X004666Y008338D02*
X003762Y008338D01*
X003762Y008494D02*
X004666Y008494D01*
X004666Y008650D02*
X003762Y008650D01*
X003762Y008806D02*
X004666Y008806D01*
X004666Y008962D02*
X003762Y008962D01*
X003762Y009118D02*
X004666Y009118D01*
X004708Y009274D02*
X003721Y009274D01*
X005494Y007344D02*
X007029Y007344D01*
X007305Y007620D01*
X008761Y007620D01*
X008426Y007870D02*
X006992Y007870D01*
X006959Y007714D02*
X007092Y007714D01*
X006947Y008026D02*
X012430Y008026D01*
X012430Y008013D02*
X012859Y008013D01*
X012859Y008013D01*
X013288Y008013D01*
X013288Y007880D01*
X013275Y007834D01*
X013252Y007794D01*
X013248Y007789D01*
X013248Y007551D01*
X013248Y007306D01*
X013327Y007306D01*
X013327Y008091D01*
X013288Y008091D01*
X013288Y008013D01*
X012859Y008013D01*
X012430Y008013D01*
X012859Y008013D02*
X012859Y008013D01*
X012859Y007698D02*
X011517Y007698D01*
X011232Y007558D02*
X011060Y007558D01*
X011200Y007714D02*
X010904Y007714D01*
X010691Y007620D02*
X009431Y007620D01*
X009766Y007870D02*
X011245Y007870D01*
X011754Y007383D02*
X011635Y007265D01*
X011045Y007265D01*
X010691Y007620D01*
X010756Y007246D02*
X010332Y007246D01*
X010104Y007246D02*
X007239Y007246D01*
X007276Y007090D02*
X008469Y007090D01*
X008742Y006793D02*
X008761Y006773D01*
X008742Y006793D02*
X007265Y006793D01*
X007029Y007029D01*
X005494Y007029D01*
X005494Y006310D02*
X005494Y006310D01*
X005494Y006154D02*
X005494Y006154D01*
X006208Y006154D02*
X006551Y006154D01*
X006740Y006310D02*
X006283Y006310D01*
X006283Y006466D02*
X008459Y006466D01*
X008200Y006054D02*
X008155Y006066D01*
X007954Y006066D01*
X007954Y005691D01*
X007915Y005691D01*
X007915Y006066D01*
X007714Y006066D01*
X007669Y006054D01*
X007628Y006030D01*
X007595Y005997D01*
X007571Y005956D01*
X007559Y005911D01*
X007559Y005691D01*
X007915Y005691D01*
X007915Y005651D01*
X007559Y005651D01*
X007559Y005431D01*
X007571Y005385D01*
X007595Y005345D01*
X007628Y005311D01*
X007632Y005309D01*
X007599Y005276D01*
X007599Y004728D01*
X007659Y004668D01*
X007306Y004668D01*
X007306Y004724D01*
X007224Y004806D01*
X006519Y004806D01*
X006438Y004724D01*
X006438Y004098D01*
X006519Y004016D01*
X006615Y004016D01*
X006615Y003671D01*
X006654Y003577D01*
X006726Y003504D01*
X006903Y003327D01*
X006998Y003288D01*
X007700Y003288D01*
X007717Y003271D01*
X007717Y002867D01*
X007698Y002859D01*
X007575Y002735D01*
X007508Y002574D01*
X007508Y001799D01*
X007575Y001638D01*
X007698Y001515D01*
X007859Y001448D01*
X008034Y001448D01*
X008195Y001515D01*
X008318Y001638D01*
X008385Y001799D01*
X008385Y002574D01*
X008318Y002735D01*
X008231Y002823D01*
X008231Y003271D01*
X008310Y003350D01*
X008310Y003667D01*
X008314Y003671D01*
X008337Y003712D01*
X008350Y003758D01*
X008350Y003919D01*
X008350Y004080D01*
X008337Y004126D01*
X008314Y004166D01*
X008310Y004171D01*
X008310Y004488D01*
X008228Y004569D01*
X008179Y004569D01*
X008181Y004646D01*
X008189Y004646D01*
X008270Y004728D01*
X008270Y005276D01*
X008237Y005309D01*
X008241Y005311D01*
X008275Y005345D01*
X008298Y005385D01*
X008310Y005431D01*
X008310Y005651D01*
X007954Y005651D01*
X007954Y005691D01*
X008310Y005691D01*
X008310Y005911D01*
X008298Y005956D01*
X008275Y005997D01*
X008241Y006030D01*
X008200Y006054D01*
X008273Y005998D02*
X011694Y005998D01*
X011694Y005842D02*
X008310Y005842D01*
X007954Y005842D02*
X007915Y005842D01*
X007915Y005686D02*
X007306Y005686D01*
X007306Y005530D02*
X007559Y005530D01*
X007578Y005374D02*
X007306Y005374D01*
X007306Y005218D02*
X007599Y005218D01*
X007599Y005063D02*
X007286Y005063D01*
X007280Y004751D02*
X007599Y004751D01*
X007599Y004907D02*
X006243Y004907D01*
X006243Y005063D02*
X006457Y005063D01*
X006438Y005218D02*
X006243Y005218D01*
X006243Y005374D02*
X006438Y005374D01*
X006438Y005530D02*
X006243Y005530D01*
X006243Y005686D02*
X006438Y005686D01*
X007108Y005842D02*
X007559Y005842D01*
X007596Y005998D02*
X007149Y005998D01*
X007114Y006154D02*
X011177Y006154D01*
X011171Y006158D02*
X011212Y006134D01*
X011258Y006122D01*
X011419Y006122D01*
X011419Y006478D01*
X011419Y006478D01*
X011419Y006834D01*
X011258Y006834D01*
X011212Y006822D01*
X011171Y006798D01*
X011138Y006765D01*
X011115Y006724D01*
X011102Y006679D01*
X011102Y006478D01*
X011419Y006478D01*
X011419Y006478D01*
X011102Y006478D01*
X011102Y006277D01*
X011115Y006232D01*
X011138Y006191D01*
X011171Y006158D01*
X011102Y006310D02*
X006924Y006310D01*
X007128Y006622D02*
X006243Y006622D01*
X006243Y006778D02*
X006972Y006778D01*
X007915Y005998D02*
X007954Y005998D01*
X007954Y005686D02*
X009649Y005686D01*
X009646Y005675D02*
X009646Y005454D01*
X010002Y005454D01*
X010002Y005830D01*
X009801Y005830D01*
X009755Y005818D01*
X009715Y005794D01*
X009681Y005761D01*
X009658Y005720D01*
X009646Y005675D01*
X009646Y005530D02*
X008310Y005530D01*
X008292Y005374D02*
X009646Y005374D01*
X009646Y005218D02*
X009309Y005218D01*
X009422Y005063D02*
X009709Y005063D01*
X009686Y004907D02*
X009424Y004907D01*
X009412Y004751D02*
X009671Y004751D01*
X009515Y004595D02*
X009412Y004595D01*
X008898Y004595D02*
X008179Y004595D01*
X008270Y004751D02*
X008898Y004751D01*
X008886Y004907D02*
X008270Y004907D01*
X008270Y005063D02*
X008888Y005063D01*
X009001Y005218D02*
X008270Y005218D01*
X008310Y004439D02*
X008583Y004439D01*
X008583Y004283D02*
X008310Y004283D01*
X008337Y004127D02*
X008583Y004127D01*
X008350Y003971D02*
X011162Y003971D01*
X011162Y004127D02*
X009718Y004127D01*
X009786Y004195D02*
X009786Y004195D01*
X009874Y004283D02*
X011094Y004283D01*
X010938Y004439D02*
X010304Y004439D01*
X010334Y005063D02*
X011125Y005063D01*
X011281Y005218D02*
X010397Y005218D01*
X010397Y005374D02*
X011437Y005374D01*
X011593Y005530D02*
X010397Y005530D01*
X010394Y005686D02*
X011694Y005686D01*
X011694Y006154D02*
X011661Y006154D01*
X011419Y006154D02*
X011419Y006154D01*
X011419Y006310D02*
X011419Y006310D01*
X011419Y006466D02*
X011419Y006466D01*
X011419Y006622D02*
X011419Y006622D01*
X011419Y006778D02*
X011419Y006778D01*
X011686Y006778D02*
X011720Y006778D01*
X011989Y006934D02*
X010535Y006934D01*
X010503Y007090D02*
X010912Y007090D01*
X011152Y006778D02*
X010490Y006778D01*
X010218Y006950D02*
X010041Y006773D01*
X009431Y006773D01*
X009733Y006466D02*
X011102Y006466D01*
X011102Y006622D02*
X010198Y006622D01*
X009933Y007090D02*
X009723Y007090D01*
X009138Y007090D02*
X009054Y007090D01*
X009064Y006466D02*
X009128Y006466D01*
X010002Y005686D02*
X010041Y005686D01*
X010041Y005530D02*
X010002Y005530D01*
X011453Y004595D02*
X014068Y004595D01*
X014075Y004751D02*
X011484Y004751D01*
X011640Y004907D02*
X014075Y004907D01*
X014079Y005063D02*
X011796Y005063D01*
X011952Y005218D02*
X013701Y005218D01*
X013822Y005218D02*
X014154Y005218D01*
X014154Y005374D02*
X014012Y005374D01*
X014039Y005530D02*
X014154Y005530D01*
X014154Y005686D02*
X013999Y005686D01*
X014076Y005842D02*
X014076Y005842D01*
X014076Y005998D02*
X014076Y005998D01*
X014076Y006154D02*
X014076Y006154D01*
X014076Y006310D02*
X014076Y006310D01*
X014076Y006466D02*
X014076Y006466D01*
X014154Y006622D02*
X013248Y006622D01*
X013248Y006778D02*
X014154Y006778D01*
X014154Y006934D02*
X013667Y006934D01*
X013802Y007090D02*
X014154Y007090D01*
X014154Y007246D02*
X013802Y007246D01*
X013327Y007402D02*
X013248Y007402D01*
X013248Y007558D02*
X013327Y007558D01*
X013327Y007714D02*
X013248Y007714D01*
X013285Y007870D02*
X013327Y007870D01*
X013327Y008026D02*
X013288Y008026D01*
X013655Y008494D02*
X013805Y008494D01*
X013802Y008338D02*
X013910Y008338D01*
X013802Y008182D02*
X015251Y008182D01*
X015415Y008328D02*
X015139Y008565D01*
X014874Y008650D02*
X014341Y008650D01*
X014348Y008494D02*
X014868Y008494D01*
X014973Y008338D02*
X014242Y008338D01*
X013811Y008650D02*
X013248Y008650D01*
X013248Y008806D02*
X013801Y008806D01*
X013645Y008962D02*
X013248Y008962D01*
X013248Y009118D02*
X013544Y009118D01*
X013761Y009155D02*
X013761Y009546D01*
X013761Y009155D02*
X013840Y009076D01*
X013198Y009274D02*
X006201Y009274D01*
X006243Y009118D02*
X010897Y009118D01*
X010866Y008962D02*
X006243Y008962D01*
X006243Y008806D02*
X011242Y008806D01*
X011242Y008801D02*
X010866Y008801D01*
X010866Y008600D01*
X010878Y008555D01*
X010902Y008514D01*
X010935Y008481D01*
X010976Y008457D01*
X011021Y008445D01*
X011242Y008445D01*
X011242Y008801D01*
X011242Y008650D02*
X011281Y008650D01*
X011281Y008494D02*
X011242Y008494D01*
X011601Y008494D02*
X011648Y008494D01*
X011281Y008962D02*
X011242Y008962D01*
X011242Y009118D02*
X011281Y009118D01*
X010866Y008650D02*
X006243Y008650D01*
X006243Y008494D02*
X010922Y008494D01*
X011754Y007383D02*
X012859Y007383D01*
X012226Y006773D02*
X012206Y006754D01*
X012254Y006466D02*
X013198Y006466D01*
X013214Y005842D02*
X012168Y005842D01*
X012168Y005686D02*
X013524Y005686D01*
X013484Y005530D02*
X012168Y005530D01*
X012108Y005374D02*
X013510Y005374D01*
X012549Y005998D02*
X012168Y005998D01*
X012168Y006154D02*
X012500Y006154D01*
X012538Y006310D02*
X012207Y006310D01*
X011989Y007090D02*
X011768Y007090D01*
X012437Y008650D02*
X012470Y008650D01*
X012470Y008806D02*
X012286Y008806D01*
X012286Y008962D02*
X012470Y008962D01*
X012470Y009118D02*
X012243Y009118D01*
X013446Y009982D02*
X013565Y010100D01*
X013919Y010100D01*
X015297Y011478D01*
X015574Y011458D02*
X017537Y011458D01*
X017365Y011302D02*
X015513Y011302D01*
X015272Y011146D02*
X017131Y011146D01*
X017030Y010990D02*
X015116Y010990D01*
X014960Y010834D02*
X017043Y010834D01*
X017181Y010678D02*
X014804Y010678D01*
X014648Y010522D02*
X015484Y010522D01*
X015379Y010366D02*
X014492Y010366D01*
X014336Y010210D02*
X015387Y010210D01*
X015434Y010054D02*
X014180Y010054D01*
X013877Y010366D02*
X013631Y010366D01*
X013640Y010522D02*
X014033Y010522D01*
X014062Y010678D02*
X014189Y010678D01*
X013840Y010848D02*
X011045Y010848D01*
X010139Y011754D01*
X009484Y011754D01*
X009470Y011740D02*
X009444Y011714D01*
X008880Y011714D01*
X008781Y011616D01*
X008781Y010376D01*
X009117Y010366D02*
X010747Y010366D01*
X010591Y010522D02*
X009117Y010522D01*
X009088Y010678D02*
X010435Y010678D01*
X010279Y010834D02*
X008999Y010834D01*
X008564Y010834D02*
X008385Y010834D01*
X008419Y010678D02*
X008474Y010678D01*
X008465Y010990D02*
X008564Y010990D01*
X008564Y011146D02*
X008510Y011146D01*
X008525Y011302D02*
X008564Y011302D01*
X008564Y011458D02*
X008426Y011458D01*
X008564Y011614D02*
X008181Y011614D01*
X008092Y011477D02*
X008092Y011477D01*
X008248Y011240D02*
X008248Y011004D01*
X008013Y010769D01*
X008013Y010474D01*
X008112Y010376D01*
X007776Y010366D02*
X006635Y010366D01*
X006637Y010210D02*
X007776Y010210D01*
X007824Y010054D02*
X006637Y010054D01*
X006597Y010522D02*
X007776Y010522D01*
X007796Y010678D02*
X006597Y010678D01*
X006740Y010834D02*
X007796Y010834D01*
X007920Y010990D02*
X007926Y010990D01*
X008013Y011754D02*
X007437Y011754D01*
X007423Y011740D01*
X007423Y011655D01*
X006281Y011655D01*
X006896Y010990D02*
X006925Y010990D01*
X008013Y011754D02*
X008486Y012226D01*
X008486Y014667D01*
X009785Y015966D01*
X010612Y015966D01*
X011151Y015981D02*
X018241Y015981D01*
X018209Y015903D02*
X018209Y015557D01*
X018341Y015238D01*
X018585Y014994D01*
X018904Y014862D01*
X019249Y014862D01*
X019568Y014994D01*
X019812Y015238D01*
X019944Y015557D01*
X019944Y015903D01*
X019812Y016221D01*
X019568Y016466D01*
X019249Y016598D01*
X018904Y016598D01*
X018585Y016466D01*
X018341Y016221D01*
X018209Y015903D01*
X018209Y015825D02*
X011151Y015825D01*
X011151Y015669D02*
X018209Y015669D01*
X018227Y015513D02*
X011151Y015513D01*
X011151Y016137D02*
X018306Y016137D01*
X018412Y016293D02*
X011151Y016293D01*
X011125Y016449D02*
X018568Y016449D01*
X019584Y016449D02*
X020472Y016449D01*
X020472Y016293D02*
X019740Y016293D01*
X019847Y016137D02*
X020472Y016137D01*
X020472Y015981D02*
X019912Y015981D01*
X019944Y015825D02*
X020472Y015825D01*
X020472Y015669D02*
X019944Y015669D01*
X019926Y015513D02*
X020472Y015513D01*
X020472Y015357D02*
X019861Y015357D01*
X019775Y015201D02*
X020472Y015201D01*
X020472Y015045D02*
X019619Y015045D01*
X019314Y014889D02*
X020472Y014889D01*
X020472Y014733D02*
X008860Y014733D01*
X008704Y014577D02*
X020472Y014577D01*
X020472Y014421D02*
X008703Y014421D01*
X008703Y014265D02*
X020472Y014265D01*
X020472Y014109D02*
X008703Y014109D01*
X008703Y013953D02*
X010842Y013953D01*
X011440Y012394D02*
X011854Y012394D01*
X010181Y011240D02*
X009470Y011240D01*
X009967Y010990D02*
X010123Y010990D01*
X010181Y011240D02*
X010966Y010454D01*
X013368Y010454D01*
X014509Y008958D02*
X015454Y008958D01*
X015769Y008643D01*
X016239Y008643D01*
X016616Y008643D01*
X016813Y008446D01*
X016813Y007257D01*
X017986Y006084D01*
X017547Y006154D02*
X017522Y006154D01*
X017522Y005998D02*
X017547Y005998D01*
X017522Y005842D02*
X017607Y005842D01*
X017522Y005686D02*
X017763Y005686D01*
X017804Y005523D02*
X017547Y005266D01*
X017547Y004903D01*
X017804Y004646D01*
X018168Y004646D01*
X018425Y004903D01*
X018425Y005266D01*
X018168Y005523D01*
X017804Y005523D01*
X017656Y005374D02*
X017522Y005374D01*
X017522Y005218D02*
X017547Y005218D01*
X017547Y005063D02*
X017522Y005063D01*
X017522Y004907D02*
X017547Y004907D01*
X017522Y004751D02*
X017699Y004751D01*
X017522Y004595D02*
X020472Y004595D01*
X020472Y004751D02*
X019329Y004751D01*
X019465Y004886D02*
X019184Y004606D01*
X019007Y004606D01*
X019007Y005063D01*
X018965Y005063D01*
X018965Y004606D01*
X018788Y004606D01*
X018507Y004886D01*
X018507Y005063D01*
X018965Y005063D01*
X018965Y005106D01*
X018965Y005563D01*
X018788Y005563D01*
X018507Y005283D01*
X018507Y005106D01*
X018965Y005106D01*
X019007Y005106D01*
X019007Y005563D01*
X019184Y005563D01*
X019465Y005283D01*
X019465Y005106D01*
X019007Y005106D01*
X019007Y005063D01*
X019465Y005063D01*
X019465Y004886D01*
X019465Y004907D02*
X020472Y004907D01*
X020472Y005063D02*
X019465Y005063D01*
X019465Y005218D02*
X020472Y005218D01*
X020472Y005374D02*
X019373Y005374D01*
X019217Y005530D02*
X020472Y005530D01*
X020472Y005686D02*
X019208Y005686D01*
X019364Y005842D02*
X020472Y005842D01*
X020472Y005998D02*
X019425Y005998D01*
X019425Y006154D02*
X020472Y006154D01*
X020472Y006310D02*
X019380Y006310D01*
X019224Y006466D02*
X020472Y006466D01*
X020472Y006622D02*
X018755Y006622D01*
X018494Y006576D02*
X018986Y006084D01*
X018547Y006154D02*
X018425Y006154D01*
X018425Y005998D02*
X018547Y005998D01*
X018607Y005842D02*
X018364Y005842D01*
X018208Y005686D02*
X018763Y005686D01*
X018755Y005530D02*
X017522Y005530D01*
X017087Y005530D02*
X016538Y005530D01*
X016538Y005374D02*
X017087Y005374D01*
X017087Y005218D02*
X016634Y005218D01*
X016594Y005258D02*
X016676Y005177D01*
X016676Y004669D01*
X016595Y004588D01*
X016676Y004508D01*
X016676Y003999D01*
X016594Y003918D01*
X016538Y003918D01*
X016538Y003585D01*
X016555Y003585D01*
X016636Y003504D01*
X016636Y002838D01*
X016555Y002757D01*
X016046Y002757D01*
X015965Y002838D01*
X015965Y003504D01*
X016046Y003585D01*
X016103Y003585D01*
X016103Y003918D01*
X016046Y003918D01*
X015965Y003999D01*
X015965Y004508D01*
X016046Y004588D01*
X015965Y004669D01*
X015965Y005177D01*
X016046Y005258D01*
X016103Y005258D01*
X016103Y006027D01*
X016085Y006045D01*
X016043Y006147D01*
X016043Y006258D01*
X016085Y006360D01*
X016163Y006438D01*
X016265Y006480D01*
X016376Y006480D01*
X016478Y006438D01*
X016556Y006360D01*
X016598Y006258D01*
X016598Y006147D01*
X016556Y006045D01*
X016538Y006027D01*
X016538Y005258D01*
X016594Y005258D01*
X016676Y005063D02*
X017087Y005063D01*
X017087Y004907D02*
X016676Y004907D01*
X016676Y004751D02*
X017087Y004751D01*
X017087Y004595D02*
X016602Y004595D01*
X016676Y004439D02*
X017087Y004439D01*
X017079Y004283D02*
X016676Y004283D01*
X016676Y004127D02*
X017027Y004127D01*
X017064Y003971D02*
X016647Y003971D01*
X016538Y003815D02*
X020472Y003815D01*
X020472Y003971D02*
X017545Y003971D01*
X017582Y004127D02*
X020472Y004127D01*
X020472Y004283D02*
X017530Y004283D01*
X017522Y004439D02*
X020472Y004439D01*
X020472Y003659D02*
X016538Y003659D01*
X016636Y003503D02*
X018656Y003503D01*
X018585Y003473D02*
X018341Y003229D01*
X018209Y002910D01*
X018209Y002565D01*
X018341Y002246D01*
X018585Y002002D01*
X018904Y001870D01*
X019249Y001870D01*
X019568Y002002D01*
X019812Y002246D01*
X019944Y002565D01*
X019944Y002910D01*
X019812Y003229D01*
X019568Y003473D01*
X019249Y003606D01*
X018904Y003606D01*
X018585Y003473D01*
X018458Y003347D02*
X016636Y003347D01*
X016636Y003191D02*
X018325Y003191D01*
X018260Y003035D02*
X016636Y003035D01*
X016636Y002879D02*
X018209Y002879D01*
X018209Y002723D02*
X015797Y002723D01*
X015783Y002719D02*
X015819Y002729D01*
X015859Y002752D01*
X015893Y002786D01*
X015916Y002826D01*
X015928Y002872D01*
X015928Y003151D01*
X015572Y003151D01*
X015572Y002717D01*
X015670Y002717D01*
X015591Y002638D01*
X015591Y002542D01*
X014763Y002542D01*
X014726Y002579D01*
X014539Y002656D01*
X014337Y002656D01*
X014150Y002579D01*
X014006Y002435D01*
X013929Y002248D01*
X013929Y002046D01*
X014006Y001859D01*
X014150Y001716D01*
X014337Y001639D01*
X014539Y001639D01*
X014726Y001716D01*
X014869Y001859D01*
X014946Y002046D01*
X014946Y002068D01*
X015591Y002068D01*
X015591Y001972D01*
X015672Y001890D01*
X016181Y001890D01*
X016262Y001972D01*
X016262Y002638D01*
X016181Y002719D01*
X015783Y002719D01*
X015572Y002723D02*
X015533Y002723D01*
X015533Y002717D02*
X015533Y003151D01*
X015572Y003151D01*
X015572Y003191D01*
X015533Y003191D01*
X015533Y003625D01*
X015332Y003625D01*
X015287Y003613D01*
X015246Y003589D01*
X015213Y003556D01*
X015189Y003515D01*
X015177Y003470D01*
X015177Y003191D01*
X011636Y003191D01*
X011636Y003347D02*
X012004Y003347D01*
X012212Y003347D02*
X015177Y003347D01*
X015186Y003503D02*
X015149Y003503D01*
X015305Y003659D02*
X016103Y003659D01*
X016103Y003815D02*
X015461Y003815D01*
X015572Y003625D02*
X015572Y003191D01*
X015533Y003191D01*
X015533Y003151D01*
X015177Y003151D01*
X015177Y002872D01*
X015189Y002826D01*
X015213Y002786D01*
X015246Y002752D01*
X015287Y002729D01*
X015332Y002717D01*
X015533Y002717D01*
X015591Y002567D02*
X014738Y002567D01*
X015177Y002879D02*
X011636Y002879D01*
X011636Y003035D02*
X015177Y003035D01*
X015177Y003191D02*
X015533Y003191D01*
X015572Y003191D02*
X015928Y003191D01*
X015965Y003191D01*
X015928Y003191D02*
X015928Y003470D01*
X015916Y003515D01*
X015893Y003556D01*
X015859Y003589D01*
X015819Y003613D01*
X015773Y003625D01*
X015572Y003625D01*
X015572Y003503D02*
X015533Y003503D01*
X015533Y003347D02*
X015572Y003347D01*
X015572Y003035D02*
X015533Y003035D01*
X015533Y002879D02*
X015572Y002879D01*
X015309Y002723D02*
X011750Y002723D01*
X011906Y002567D02*
X012998Y002567D01*
X012856Y002411D02*
X012062Y002411D01*
X011703Y002099D02*
X010385Y002099D01*
X010385Y002255D02*
X011547Y002255D01*
X011391Y002411D02*
X010385Y002411D01*
X010385Y002567D02*
X011235Y002567D01*
X011162Y002723D02*
X010324Y002723D01*
X010318Y002735D02*
X010195Y002859D01*
X010034Y002925D01*
X009859Y002925D01*
X009698Y002859D01*
X009575Y002735D01*
X009508Y002574D01*
X009508Y001799D01*
X009575Y001638D01*
X009698Y001515D01*
X009859Y001448D01*
X010034Y001448D01*
X010195Y001515D01*
X010318Y001638D01*
X010385Y001799D01*
X010385Y002574D01*
X010318Y002735D01*
X010146Y002879D02*
X011162Y002879D01*
X011162Y003035D02*
X008231Y003035D01*
X008231Y003191D02*
X011162Y003191D01*
X011162Y003347D02*
X009252Y003347D01*
X009254Y003350D02*
X009254Y003740D01*
X009173Y003821D01*
X008665Y003821D01*
X008583Y003740D01*
X008583Y003350D01*
X008665Y003268D01*
X009173Y003268D01*
X009254Y003350D01*
X009254Y003503D02*
X011162Y003503D01*
X011162Y003659D02*
X009254Y003659D01*
X009180Y003815D02*
X011162Y003815D01*
X011636Y003815D02*
X011926Y003815D01*
X011830Y003659D02*
X011636Y003659D01*
X011636Y003503D02*
X011849Y003503D01*
X012108Y003604D02*
X014943Y003604D01*
X015651Y004313D01*
X015651Y006166D01*
X015900Y006154D02*
X016043Y006154D01*
X016065Y006310D02*
X015900Y006310D01*
X015900Y006466D02*
X016233Y006466D01*
X016408Y006466D02*
X016812Y006466D01*
X016968Y006310D02*
X016576Y006310D01*
X016598Y006154D02*
X017087Y006154D01*
X017087Y005998D02*
X016538Y005998D01*
X016538Y005842D02*
X017087Y005842D01*
X017087Y005686D02*
X016538Y005686D01*
X016103Y005686D02*
X015869Y005686D01*
X015869Y005530D02*
X016103Y005530D01*
X016103Y005374D02*
X015869Y005374D01*
X015869Y005218D02*
X016007Y005218D01*
X015965Y005063D02*
X015869Y005063D01*
X015869Y004907D02*
X015965Y004907D01*
X015965Y004751D02*
X015869Y004751D01*
X015869Y004595D02*
X016039Y004595D01*
X015965Y004439D02*
X015869Y004439D01*
X015869Y004283D02*
X015965Y004283D01*
X015965Y004127D02*
X015773Y004127D01*
X015617Y003971D02*
X015994Y003971D01*
X016320Y004254D02*
X016320Y003191D01*
X016301Y003171D01*
X015965Y003035D02*
X015928Y003035D01*
X015928Y002879D02*
X015965Y002879D01*
X016262Y002567D02*
X018209Y002567D01*
X018273Y002411D02*
X016262Y002411D01*
X016262Y002255D02*
X018337Y002255D01*
X018488Y002099D02*
X016262Y002099D01*
X016234Y001943D02*
X018728Y001943D01*
X019425Y001943D02*
X020472Y001943D01*
X020472Y002099D02*
X019665Y002099D01*
X019816Y002255D02*
X020472Y002255D01*
X020472Y002411D02*
X019880Y002411D01*
X019944Y002567D02*
X020472Y002567D01*
X020472Y002723D02*
X019944Y002723D01*
X019944Y002879D02*
X020472Y002879D01*
X020472Y003035D02*
X019893Y003035D01*
X019828Y003191D02*
X020472Y003191D01*
X020472Y003347D02*
X019695Y003347D01*
X019497Y003503D02*
X020472Y003503D01*
X019007Y004751D02*
X018965Y004751D01*
X018965Y004907D02*
X019007Y004907D01*
X019007Y005063D02*
X018965Y005063D01*
X018965Y005218D02*
X019007Y005218D01*
X019007Y005374D02*
X018965Y005374D01*
X018965Y005530D02*
X019007Y005530D01*
X018599Y005374D02*
X018316Y005374D01*
X018425Y005218D02*
X018507Y005218D01*
X018507Y005063D02*
X018425Y005063D01*
X018425Y004907D02*
X018507Y004907D01*
X018642Y004751D02*
X018273Y004751D01*
X017305Y004116D02*
X017305Y006281D01*
X016832Y006754D01*
X016239Y006754D01*
X015850Y006778D02*
X014629Y006778D01*
X014629Y006622D02*
X015850Y006622D01*
X015850Y006934D02*
X014629Y006934D01*
X014629Y007090D02*
X015850Y007090D01*
X015850Y007246D02*
X014629Y007246D01*
X014862Y007402D02*
X015850Y007402D01*
X015850Y007558D02*
X014961Y007558D01*
X014948Y007714D02*
X015850Y007714D01*
X015850Y007870D02*
X014807Y007870D01*
X014566Y007870D02*
X013802Y007870D01*
X013802Y008026D02*
X015850Y008026D01*
X015850Y008962D02*
X015758Y008962D01*
X015850Y009118D02*
X015602Y009118D01*
X015900Y009274D02*
X017816Y009274D01*
X017914Y009118D02*
X016941Y009118D01*
X016793Y008958D02*
X017108Y008643D01*
X017108Y008053D01*
X017541Y007620D01*
X018210Y007620D01*
X018486Y007344D01*
X018486Y006576D01*
X018494Y006576D01*
X018268Y006622D02*
X017755Y006622D01*
X017671Y006778D02*
X017599Y006778D01*
X017573Y006934D02*
X017443Y006934D01*
X017547Y007090D02*
X017287Y007090D01*
X017131Y007246D02*
X017578Y007246D01*
X017451Y007402D02*
X017030Y007402D01*
X017030Y007558D02*
X017295Y007558D01*
X017139Y007714D02*
X017030Y007714D01*
X017442Y008026D02*
X018749Y008026D01*
X018749Y007870D02*
X017598Y007870D01*
X017325Y008182D02*
X018710Y008182D01*
X018554Y008338D02*
X017325Y008338D01*
X017325Y008494D02*
X018398Y008494D01*
X018242Y008650D02*
X017325Y008650D01*
X017253Y008806D02*
X018086Y008806D01*
X017930Y008962D02*
X017097Y008962D01*
X016793Y008958D02*
X016239Y008958D01*
X016183Y009430D02*
X015900Y009430D01*
X015900Y009586D02*
X016009Y009586D01*
X015945Y009742D02*
X015900Y009742D01*
X015869Y009898D02*
X015977Y009898D01*
X015869Y010054D02*
X018296Y010054D01*
X018478Y010054D02*
X018820Y010054D01*
X018820Y010210D02*
X018644Y010210D01*
X018665Y010366D02*
X018820Y010366D01*
X018820Y010522D02*
X018575Y010522D01*
X018387Y010317D02*
X015671Y010317D01*
X015651Y010297D01*
X015651Y009546D01*
X016467Y009898D02*
X018820Y009898D01*
X019037Y009746D02*
X019037Y010927D01*
X018775Y010834D02*
X017567Y010834D01*
X017429Y010678D02*
X018820Y010678D01*
X018763Y010990D02*
X017727Y010990D01*
X017900Y011146D02*
X018864Y011146D01*
X019210Y011146D02*
X020472Y011146D01*
X020472Y011302D02*
X018072Y011302D01*
X018244Y011458D02*
X020472Y011458D01*
X020472Y011614D02*
X018416Y011614D01*
X018588Y011770D02*
X020472Y011770D01*
X020472Y011926D02*
X018760Y011926D01*
X018803Y012082D02*
X020472Y012082D01*
X020472Y012238D02*
X018802Y012238D01*
X018802Y012394D02*
X020472Y012394D01*
X020472Y012550D02*
X018802Y012550D01*
X018999Y012706D02*
X020472Y012706D01*
X020472Y012862D02*
X018999Y012862D01*
X018999Y013018D02*
X020472Y013018D01*
X020472Y013173D02*
X018999Y013173D01*
X019029Y013329D02*
X020472Y013329D01*
X020472Y013485D02*
X019039Y013485D01*
X019039Y013624D02*
X019039Y013844D01*
X019026Y013889D01*
X019003Y013930D01*
X018970Y013963D01*
X018929Y013987D01*
X018883Y013999D01*
X018683Y013999D01*
X018683Y013624D01*
X019039Y013624D01*
X019039Y013641D02*
X020472Y013641D01*
X020472Y013797D02*
X019039Y013797D01*
X018980Y013953D02*
X020472Y013953D01*
X018838Y014889D02*
X009016Y014889D01*
X009172Y015045D02*
X018534Y015045D01*
X018378Y015201D02*
X009328Y015201D01*
X009484Y015357D02*
X018292Y015357D01*
X018643Y013953D02*
X018683Y013953D01*
X018683Y013797D02*
X018643Y013797D01*
X018643Y013641D02*
X018683Y013641D01*
X019311Y010990D02*
X020472Y010990D01*
X020472Y010834D02*
X019299Y010834D01*
X019254Y010678D02*
X020472Y010678D01*
X020472Y010522D02*
X019254Y010522D01*
X019254Y010366D02*
X020472Y010366D01*
X020472Y010210D02*
X019254Y010210D01*
X019254Y010054D02*
X020472Y010054D01*
X020472Y009898D02*
X019254Y009898D01*
X019254Y009742D02*
X020472Y009742D01*
X020472Y009586D02*
X019185Y009586D01*
X019156Y009430D02*
X020472Y009430D01*
X020472Y009274D02*
X019156Y009274D01*
X018820Y009529D02*
X019037Y009746D01*
X018445Y009118D02*
X020472Y009118D01*
X020472Y008962D02*
X018601Y008962D01*
X018757Y008806D02*
X020472Y008806D01*
X020472Y008650D02*
X018913Y008650D01*
X019069Y008494D02*
X020472Y008494D01*
X020472Y008338D02*
X019223Y008338D01*
X019223Y008182D02*
X020472Y008182D01*
X020472Y008026D02*
X019223Y008026D01*
X019223Y007870D02*
X020472Y007870D01*
X020472Y007714D02*
X019223Y007714D01*
X019223Y007558D02*
X020472Y007558D01*
X020472Y007402D02*
X019288Y007402D01*
X019425Y007246D02*
X020472Y007246D01*
X020472Y007090D02*
X019425Y007090D01*
X019425Y006934D02*
X020472Y006934D01*
X020472Y006778D02*
X019300Y006778D01*
X018749Y007558D02*
X018579Y007558D01*
X018423Y007714D02*
X018749Y007714D01*
X018288Y006466D02*
X018224Y006466D01*
X018380Y006310D02*
X018452Y006310D01*
X016320Y006202D02*
X016320Y004923D01*
X015434Y004907D02*
X014707Y004907D01*
X014704Y005063D02*
X015434Y005063D01*
X015434Y005218D02*
X014629Y005218D01*
X014629Y005374D02*
X015434Y005374D01*
X015434Y005530D02*
X014629Y005530D01*
X014629Y005686D02*
X015434Y005686D01*
X015884Y005842D02*
X016103Y005842D01*
X016103Y005998D02*
X015900Y005998D01*
X015434Y004751D02*
X014707Y004751D01*
X014714Y004595D02*
X015434Y004595D01*
X015434Y004439D02*
X014747Y004439D01*
X014747Y004352D02*
X014391Y004352D01*
X014391Y004352D01*
X014747Y004352D01*
X014747Y004283D02*
X015314Y004283D01*
X015158Y004127D02*
X014724Y004127D01*
X014391Y004127D02*
X014391Y004127D01*
X014391Y004283D02*
X014391Y004283D01*
X014035Y004283D02*
X011636Y004283D01*
X011636Y004127D02*
X014058Y004127D01*
X014035Y004439D02*
X011609Y004439D01*
X011636Y003971D02*
X015002Y003971D01*
X015920Y003503D02*
X015965Y003503D01*
X015965Y003347D02*
X015928Y003347D01*
X015620Y001943D02*
X014904Y001943D01*
X014797Y001787D02*
X020472Y001787D01*
X020472Y001631D02*
X010311Y001631D01*
X010380Y001787D02*
X012939Y001787D01*
X013657Y001787D02*
X014079Y001787D01*
X013972Y001943D02*
X013764Y001943D01*
X013806Y002099D02*
X013929Y002099D01*
X013932Y002255D02*
X013804Y002255D01*
X013739Y002411D02*
X013996Y002411D01*
X014138Y002567D02*
X013598Y002567D01*
X011859Y001943D02*
X010385Y001943D01*
X010099Y001475D02*
X020472Y001475D01*
X020472Y001342D02*
X002326Y001342D01*
X002326Y017126D01*
X020472Y017126D01*
X020472Y001342D01*
X009794Y001475D02*
X009099Y001475D01*
X009034Y001448D02*
X009195Y001515D01*
X009318Y001638D01*
X009385Y001799D01*
X009385Y002574D01*
X009318Y002735D01*
X009195Y002859D01*
X009034Y002925D01*
X008859Y002925D01*
X008698Y002859D01*
X008575Y002735D01*
X008508Y002574D01*
X008508Y001799D01*
X008575Y001638D01*
X008698Y001515D01*
X008859Y001448D01*
X009034Y001448D01*
X008794Y001475D02*
X008099Y001475D01*
X008311Y001631D02*
X008582Y001631D01*
X008513Y001787D02*
X008380Y001787D01*
X008385Y001943D02*
X008508Y001943D01*
X008508Y002099D02*
X008385Y002099D01*
X008385Y002255D02*
X008508Y002255D01*
X008508Y002411D02*
X008385Y002411D01*
X008385Y002567D02*
X008508Y002567D01*
X008569Y002723D02*
X008324Y002723D01*
X008231Y002879D02*
X008747Y002879D01*
X009146Y002879D02*
X009747Y002879D01*
X009569Y002723D02*
X009324Y002723D01*
X009385Y002567D02*
X009508Y002567D01*
X009508Y002411D02*
X009385Y002411D01*
X009385Y002255D02*
X009508Y002255D01*
X009508Y002099D02*
X009385Y002099D01*
X009385Y001943D02*
X009508Y001943D01*
X009513Y001787D02*
X009380Y001787D01*
X009311Y001631D02*
X009582Y001631D01*
X007794Y001475D02*
X007193Y001475D01*
X007197Y001477D02*
X007258Y001521D01*
X007312Y001575D01*
X007356Y001636D01*
X007390Y001703D01*
X007413Y001775D01*
X007425Y001849D01*
X007425Y002165D01*
X006968Y002165D01*
X006968Y002208D01*
X007425Y002208D01*
X007425Y002524D01*
X007413Y002599D01*
X007390Y002670D01*
X007356Y002738D01*
X007312Y002798D01*
X007258Y002852D01*
X007197Y002896D01*
X007130Y002930D01*
X007059Y002954D01*
X006984Y002965D01*
X006968Y002965D01*
X006968Y002208D01*
X006925Y002208D01*
X006925Y002165D01*
X006968Y002165D01*
X006968Y001408D01*
X006984Y001408D01*
X007059Y001420D01*
X007130Y001443D01*
X007197Y001477D01*
X007352Y001631D02*
X007582Y001631D01*
X007513Y001787D02*
X007415Y001787D01*
X007425Y001943D02*
X007508Y001943D01*
X007508Y002099D02*
X007425Y002099D01*
X007425Y002255D02*
X007508Y002255D01*
X007508Y002411D02*
X007425Y002411D01*
X007418Y002567D02*
X007508Y002567D01*
X007569Y002723D02*
X007363Y002723D01*
X007221Y002879D02*
X007717Y002879D01*
X007717Y003035D02*
X004538Y003035D01*
X004590Y002910D02*
X004458Y003229D01*
X004214Y003473D01*
X003895Y003606D01*
X003549Y003606D01*
X003231Y003473D01*
X002986Y003229D01*
X002854Y002910D01*
X002854Y002565D01*
X002986Y002246D01*
X003231Y002002D01*
X003549Y001870D01*
X003895Y001870D01*
X004214Y002002D01*
X004458Y002246D01*
X004590Y002565D01*
X004590Y002910D01*
X004590Y002879D02*
X006672Y002879D01*
X006696Y002896D02*
X006635Y002852D01*
X006581Y002798D01*
X006537Y002738D01*
X006503Y002670D01*
X006480Y002599D01*
X006468Y002524D01*
X006468Y002208D01*
X006925Y002208D01*
X006925Y002965D01*
X006909Y002965D01*
X006834Y002954D01*
X006763Y002930D01*
X006696Y002896D01*
X006925Y002879D02*
X006968Y002879D01*
X006968Y002723D02*
X006925Y002723D01*
X006925Y002567D02*
X006968Y002567D01*
X006968Y002411D02*
X006925Y002411D01*
X006925Y002255D02*
X006968Y002255D01*
X006925Y002165D02*
X006468Y002165D01*
X006468Y001849D01*
X006480Y001775D01*
X006503Y001703D01*
X006537Y001636D01*
X006581Y001575D01*
X006635Y001521D01*
X006696Y001477D01*
X006763Y001443D01*
X006834Y001420D01*
X006909Y001408D01*
X006925Y001408D01*
X006925Y002165D01*
X006925Y002099D02*
X006968Y002099D01*
X006968Y001943D02*
X006925Y001943D01*
X006925Y001787D02*
X006968Y001787D01*
X006968Y001631D02*
X006925Y001631D01*
X006925Y001475D02*
X006968Y001475D01*
X006700Y001475D02*
X002326Y001475D01*
X002326Y001631D02*
X006540Y001631D01*
X006478Y001787D02*
X002326Y001787D01*
X002326Y001943D02*
X003374Y001943D01*
X003134Y002099D02*
X002326Y002099D01*
X002326Y002255D02*
X002983Y002255D01*
X002918Y002411D02*
X002326Y002411D01*
X002326Y002567D02*
X002854Y002567D01*
X002854Y002723D02*
X002326Y002723D01*
X002326Y002879D02*
X002854Y002879D01*
X002906Y003035D02*
X002326Y003035D01*
X002326Y003191D02*
X002970Y003191D01*
X003104Y003347D02*
X002326Y003347D01*
X002326Y003503D02*
X003301Y003503D01*
X004143Y003503D02*
X006728Y003503D01*
X006620Y003659D02*
X002326Y003659D01*
X002326Y003815D02*
X006615Y003815D01*
X006615Y003971D02*
X002326Y003971D01*
X002326Y004127D02*
X006438Y004127D01*
X006438Y004283D02*
X002326Y004283D01*
X002326Y004439D02*
X006438Y004439D01*
X006438Y004595D02*
X002326Y004595D01*
X004340Y003347D02*
X006884Y003347D01*
X007155Y003802D02*
X007129Y003828D01*
X007129Y004016D01*
X007224Y004016D01*
X007306Y004098D01*
X007306Y004154D01*
X007627Y004154D01*
X007611Y004126D01*
X007598Y004080D01*
X007598Y003919D01*
X007974Y003919D01*
X007974Y003919D01*
X008350Y003919D01*
X007974Y003919D01*
X007974Y003919D01*
X007598Y003919D01*
X007598Y003802D01*
X007155Y003802D01*
X007142Y003815D02*
X007598Y003815D01*
X007598Y003971D02*
X007129Y003971D01*
X007306Y004127D02*
X007611Y004127D01*
X008350Y003815D02*
X008658Y003815D01*
X008583Y003659D02*
X008310Y003659D01*
X008310Y003503D02*
X008583Y003503D01*
X008586Y003347D02*
X008307Y003347D01*
X007717Y003191D02*
X004474Y003191D01*
X004590Y002723D02*
X006529Y002723D01*
X006474Y002567D02*
X004590Y002567D01*
X004526Y002411D02*
X006468Y002411D01*
X006468Y002255D02*
X004461Y002255D01*
X004310Y002099D02*
X006468Y002099D01*
X006468Y001943D02*
X004070Y001943D01*
X006167Y004751D02*
X006464Y004751D01*
X008400Y010054D02*
X008493Y010054D01*
X008627Y011770D02*
X008337Y011770D01*
X008493Y011926D02*
X008783Y011926D01*
X008898Y012082D02*
X008649Y012082D01*
X008250Y012502D02*
X008250Y015100D01*
X008643Y015494D01*
X008643Y015966D01*
X008105Y015981D02*
X004557Y015981D01*
X004590Y015903D02*
X004458Y016221D01*
X004214Y016466D01*
X003895Y016598D01*
X003549Y016598D01*
X003231Y016466D01*
X002986Y016221D01*
X002854Y015903D01*
X002854Y015557D01*
X002986Y015238D01*
X003231Y014994D01*
X003549Y014862D01*
X003895Y014862D01*
X004214Y014994D01*
X004458Y015238D01*
X004590Y015557D01*
X004590Y015903D01*
X004590Y015825D02*
X008119Y015825D01*
X008183Y015669D02*
X004590Y015669D01*
X004571Y015513D02*
X008334Y015513D01*
X008199Y015357D02*
X004507Y015357D01*
X004421Y015201D02*
X008043Y015201D01*
X008032Y015045D02*
X004265Y015045D01*
X003960Y014889D02*
X008032Y014889D01*
X008032Y014733D02*
X002326Y014733D01*
X002326Y014577D02*
X008032Y014577D01*
X008032Y014421D02*
X002326Y014421D01*
X002326Y014265D02*
X008032Y014265D01*
X008032Y014109D02*
X002326Y014109D01*
X002326Y013953D02*
X008032Y013953D01*
X008032Y013797D02*
X002326Y013797D01*
X002326Y013641D02*
X008032Y013641D01*
X008032Y013485D02*
X002326Y013485D01*
X002326Y013329D02*
X008032Y013329D01*
X008032Y013173D02*
X002326Y013173D01*
X002326Y013018D02*
X006909Y013018D01*
X006811Y012862D02*
X002326Y012862D01*
X002326Y012706D02*
X006811Y012706D01*
X006825Y012550D02*
X006617Y012550D01*
X007423Y012862D02*
X007423Y012862D01*
X007423Y013018D02*
X007423Y013018D01*
X007937Y013018D02*
X008032Y013018D01*
X008502Y015045D02*
X008557Y015045D01*
X008658Y015201D02*
X008713Y015201D01*
X008814Y015357D02*
X008869Y015357D01*
X008952Y015513D02*
X009025Y015513D01*
X009103Y015669D02*
X009181Y015669D01*
X009168Y015825D02*
X009337Y015825D01*
X009182Y015981D02*
X009492Y015981D01*
X009648Y016137D02*
X009156Y016137D01*
X009078Y016293D02*
X010073Y016293D01*
X010099Y016449D02*
X008885Y016449D01*
X008401Y016449D02*
X004230Y016449D01*
X004386Y016293D02*
X008208Y016293D01*
X008131Y016137D02*
X004493Y016137D01*
X003484Y014889D02*
X002326Y014889D01*
X002326Y015045D02*
X003180Y015045D01*
X003024Y015201D02*
X002326Y015201D01*
X002326Y015357D02*
X002937Y015357D01*
X002873Y015513D02*
X002326Y015513D01*
X002326Y015669D02*
X002854Y015669D01*
X002854Y015825D02*
X002326Y015825D01*
X002326Y015981D02*
X002887Y015981D01*
X002952Y016137D02*
X002326Y016137D01*
X002326Y016293D02*
X003058Y016293D01*
X003214Y016449D02*
X002326Y016449D01*
X002326Y016605D02*
X020472Y016605D01*
X020472Y016761D02*
X002326Y016761D01*
X002326Y016917D02*
X020472Y016917D01*
X020472Y017073D02*
X002326Y017073D01*
X009640Y015513D02*
X010073Y015513D01*
X010073Y015669D02*
X009796Y015669D01*
D34*
X013840Y009076D02*
X014076Y008840D01*
X014076Y008565D01*
X015415Y008328D02*
X016239Y008328D01*
D35*
X009155Y004982D02*
X009155Y004332D01*
X009116Y004293D01*
X007974Y004293D02*
X007856Y004411D01*
X006872Y004411D01*
X006872Y003722D01*
X007049Y003545D01*
X007974Y003545D01*
X007974Y002175D01*
X007946Y002187D01*
X007974Y004293D02*
X007915Y004352D01*
X007935Y005002D01*
D36*
X006832Y006006D03*
X006675Y007856D03*
X010218Y006950D03*
X011517Y007698D03*
M02*
