G75*
%MOIN*%
%OFA0B0*%
%FSLAX24Y24*%
%IPPOS*%
%LPD*%
%AMOC8*
5,1,8,0,0,1.08239X$1,22.5*
%
%ADD10R,0.0220X0.0500*%
%ADD11R,0.0500X0.0220*%
%ADD12R,0.0984X0.0787*%
%ADD13R,0.1299X0.0787*%
%ADD14R,0.1220X0.0197*%
%ADD15R,0.0866X0.0236*%
%ADD16R,0.0354X0.0276*%
%ADD17R,0.0394X0.0433*%
%ADD18R,0.0433X0.0394*%
%ADD19R,0.2100X0.0760*%
%ADD20R,0.0591X0.0512*%
%ADD21R,0.0394X0.0276*%
%ADD22R,0.0276X0.0354*%
%ADD23R,0.0394X0.0551*%
D10*
X013446Y006166D03*
X013761Y006166D03*
X014076Y006166D03*
X014391Y006166D03*
X014706Y006166D03*
X015021Y006166D03*
X015336Y006166D03*
X015651Y006166D03*
X015651Y009546D03*
X015336Y009546D03*
X015021Y009546D03*
X014706Y009546D03*
X014391Y009546D03*
X014076Y009546D03*
X013761Y009546D03*
X013446Y009546D03*
D11*
X012859Y008958D03*
X012859Y008643D03*
X012859Y008328D03*
X012859Y008013D03*
X012859Y007698D03*
X012859Y007383D03*
X012859Y007069D03*
X012859Y006754D03*
X016239Y006754D03*
X016239Y007069D03*
X016239Y007383D03*
X016239Y007698D03*
X016239Y008013D03*
X016239Y008328D03*
X016239Y008643D03*
X016239Y008958D03*
D12*
X003131Y005277D03*
X003131Y008781D03*
D13*
X005454Y008781D03*
X005454Y005277D03*
D14*
X005494Y006399D03*
X005494Y006714D03*
X005494Y007029D03*
X005494Y007344D03*
X005494Y007659D03*
D15*
X007423Y011240D03*
X007423Y011740D03*
X007423Y012240D03*
X007423Y012740D03*
X009470Y012740D03*
X009470Y012240D03*
X009470Y011740D03*
X009470Y011240D03*
D16*
X006281Y010710D03*
X006281Y010198D03*
X014391Y004864D03*
X014391Y004352D03*
D17*
X010021Y004765D03*
X010021Y005435D03*
X009431Y006773D03*
X008761Y006773D03*
X008761Y007620D03*
X009431Y007620D03*
X007935Y005671D03*
X007935Y005002D03*
X008112Y010376D03*
X008781Y010376D03*
X006281Y011655D03*
X006281Y012324D03*
X011202Y012994D03*
X011202Y013663D03*
X018151Y009529D03*
X018820Y009529D03*
X018663Y012935D03*
X018663Y013604D03*
D18*
X011931Y008820D03*
X011261Y008820D03*
X016320Y004923D03*
X016320Y004254D03*
D19*
X016843Y012777D03*
X013043Y012777D03*
D20*
X006872Y005395D03*
X006872Y004411D03*
D21*
X007974Y004293D03*
X007974Y003919D03*
X007974Y003545D03*
X008919Y003545D03*
X008919Y004293D03*
D22*
X011419Y006478D03*
X011931Y006478D03*
D23*
X015553Y003171D03*
X016301Y003171D03*
X015927Y002305D03*
M02*
