G75*
%MOIN*%
%OFA0B0*%
%FSLAX24Y24*%
%IPPOS*%
%LPD*%
%AMOC8*
5,1,8,0,0,1.08239X$1,22.5*
%
%ADD10C,0.1418*%
%ADD11R,0.0260X0.0540*%
%ADD12R,0.0540X0.0260*%
%ADD13R,0.1024X0.0827*%
%ADD14R,0.1339X0.0827*%
%ADD15R,0.1260X0.0237*%
%ADD16C,0.0394*%
%ADD17R,0.0906X0.0276*%
%ADD18R,0.0394X0.0316*%
%ADD19R,0.0434X0.0473*%
%ADD20R,0.0473X0.0434*%
%ADD21R,0.2140X0.0800*%
%ADD22R,0.0631X0.0552*%
%ADD23R,0.0434X0.0316*%
%ADD24R,0.0316X0.0394*%
%ADD25R,0.0840X0.0840*%
%ADD26C,0.0840*%
%ADD27C,0.0780*%
%ADD28C,0.0640*%
%ADD29R,0.0434X0.0591*%
%ADD30C,0.0640*%
%ADD31OC8,0.0640*%
D10*
X003722Y002738D03*
X003722Y015730D03*
X019076Y015730D03*
X019076Y002738D03*
D11*
X015651Y006166D03*
X015336Y006166D03*
X015021Y006166D03*
X014706Y006166D03*
X014391Y006166D03*
X014076Y006166D03*
X013761Y006166D03*
X013446Y006166D03*
X013446Y009546D03*
X013761Y009546D03*
X014076Y009546D03*
X014391Y009546D03*
X014706Y009546D03*
X015021Y009546D03*
X015336Y009546D03*
X015651Y009546D03*
D12*
X016239Y008958D03*
X016239Y008643D03*
X016239Y008328D03*
X016239Y008013D03*
X016239Y007698D03*
X016239Y007383D03*
X016239Y007069D03*
X016239Y006754D03*
X012859Y006754D03*
X012859Y007069D03*
X012859Y007383D03*
X012859Y007698D03*
X012859Y008013D03*
X012859Y008328D03*
X012859Y008643D03*
X012859Y008958D03*
D13*
X003131Y008781D03*
X003131Y005277D03*
D14*
X005454Y005277D03*
X005454Y008781D03*
D15*
X005494Y007659D03*
X005494Y007344D03*
X005494Y007029D03*
X005494Y006714D03*
X005494Y006399D03*
D16*
X004313Y006163D03*
X004313Y007895D03*
D17*
X007423Y011240D03*
X007423Y011740D03*
X007423Y012240D03*
X007423Y012740D03*
X009470Y012740D03*
X009470Y012240D03*
X009470Y011740D03*
X009470Y011240D03*
D18*
X006281Y010710D03*
X006281Y010198D03*
X014391Y004864D03*
X014391Y004352D03*
D19*
X010021Y004765D03*
X010021Y005435D03*
X009431Y006773D03*
X008761Y006773D03*
X008761Y007620D03*
X009431Y007620D03*
X007935Y005671D03*
X007935Y005002D03*
X008112Y010376D03*
X008781Y010376D03*
X006281Y011655D03*
X006281Y012324D03*
X011202Y012994D03*
X011202Y013663D03*
X018151Y009529D03*
X018820Y009529D03*
X018663Y012935D03*
X018663Y013604D03*
D20*
X011931Y008820D03*
X011261Y008820D03*
X016320Y004923D03*
X016320Y004254D03*
D21*
X016843Y012777D03*
X013043Y012777D03*
D22*
X006872Y005395D03*
X006872Y004411D03*
D23*
X007974Y004293D03*
X007974Y003919D03*
X007974Y003545D03*
X008919Y003545D03*
X008919Y004293D03*
D24*
X011419Y006478D03*
X011931Y006478D03*
D25*
X010612Y015966D03*
D26*
X008643Y015966D03*
D27*
X013298Y002147D03*
X014438Y002147D03*
D28*
X009946Y001887D02*
X009946Y002487D01*
X008946Y002487D02*
X008946Y001887D01*
X007946Y001887D02*
X007946Y002487D01*
X006946Y002487D02*
X006946Y001887D01*
D29*
X015553Y003171D03*
X016301Y003171D03*
X015927Y002305D03*
D30*
X017986Y007084D03*
D31*
X017986Y006084D03*
X017986Y005084D03*
X018986Y005084D03*
X018986Y006084D03*
X018986Y007084D03*
M02*
