%
M48
M72
T01C0.0157
T02C0.0236
T03C0.0354
T04C0.0400
T05C0.0512
T06C0.1378
%
T01
X8525Y3919
X8565Y4824
X9155Y4982
X10336Y6242
X10021Y8643
X8250Y11242
X7502Y13604
X11202Y12088
X13368Y10454
X13840Y10848
X14273Y11242
X15297Y11478
X15651Y10297
X16222Y9765
X15139Y8565
X14509Y8958
X14076Y8565
X14687Y7620
X15336Y7226
X16320Y6202
X17305Y4116
X13761Y5494
X12659Y5100
X12777Y6163
X12108Y3604
X6872Y8643
X14982Y12777
X17305Y10927
X18387Y10317
X19037Y10927
X17698Y8565
T02
X11517Y7698
X10218Y6950
X6832Y6006
X6675Y7856
T03
X4313Y7895
X4313Y6163
T04
X6946Y2187
X7946Y2187
X8946Y2187
X9946Y2187
X13298Y2147
X14438Y2147
X17986Y5084
X18986Y5084
X18986Y6084
X18986Y7084
X17986Y7084
X17986Y6084
T05
X10612Y15966
X8643Y15966
T06
X3722Y2738
X3722Y15730
X19076Y15730
X19076Y2738
M30
