G75*
%MOIN*%
%OFA0B0*%
%FSLAX24Y24*%
%IPPOS*%
%LPD*%
%AMOC8*
5,1,8,0,0,1.08239X$1,22.5*
%
%ADD10R,0.0800X0.0800*%
%ADD11C,0.0800*%
%ADD12C,0.0740*%
%ADD13C,0.0600*%
%ADD14C,0.0600*%
%ADD15OC8,0.0600*%
%ADD16C,0.0197*%
%ADD17C,0.0277*%
%ADD18C,0.0157*%
%ADD19C,0.0356*%
%ADD20C,0.0236*%
D10*
X010612Y015966D03*
D11*
X008643Y015966D03*
D12*
X013298Y002147D03*
X014438Y002147D03*
D13*
X009946Y001887D02*
X009946Y002487D01*
X008946Y002487D02*
X008946Y001887D01*
X007946Y001887D02*
X007946Y002487D01*
X006946Y002487D02*
X006946Y001887D01*
D14*
X017986Y007084D03*
D15*
X017986Y006084D03*
X017986Y005084D03*
X018986Y005084D03*
X018986Y006084D03*
X018986Y007084D03*
D16*
X018387Y007486D02*
X017986Y007084D01*
X018387Y007486D02*
X018387Y010317D01*
X017305Y010927D02*
X017029Y010651D01*
X017029Y005809D01*
X016714Y005494D01*
X013761Y005494D01*
X012777Y006163D02*
X012777Y010553D01*
X011202Y012088D01*
X015080Y008013D02*
X014687Y007620D01*
X015080Y008013D02*
X015612Y008013D01*
X016222Y008624D01*
X016222Y009765D01*
X006832Y006006D02*
X006675Y006163D01*
X006675Y007856D01*
D17*
X006872Y008643D03*
X008250Y011242D03*
X007502Y013604D03*
X011202Y012088D03*
X013368Y010454D03*
X013840Y010848D03*
X014273Y011242D03*
X015297Y011478D03*
X015651Y010297D03*
X016222Y009765D03*
X015139Y008565D03*
X014509Y008958D03*
X014076Y008565D03*
X014687Y007620D03*
X015336Y007226D03*
X016320Y006202D03*
X017305Y004116D03*
X013761Y005494D03*
X012659Y005100D03*
X012777Y006163D03*
X010336Y006242D03*
X009155Y004982D03*
X008565Y004824D03*
X008525Y003919D03*
X012108Y003604D03*
X010021Y008643D03*
X014982Y012777D03*
X017305Y010927D03*
X018387Y010317D03*
X019037Y010927D03*
X017698Y008565D03*
D18*
X002326Y001342D02*
X002326Y017126D01*
X020472Y017126D01*
X020472Y001342D01*
X002326Y001342D01*
X002326Y001475D02*
X006700Y001475D01*
X006696Y001477D02*
X006763Y001443D01*
X006834Y001420D01*
X006909Y001408D01*
X006925Y001408D01*
X006925Y002165D01*
X006968Y002165D01*
X006968Y002208D01*
X007425Y002208D01*
X007425Y002524D01*
X007413Y002599D01*
X007390Y002670D01*
X007356Y002738D01*
X007312Y002798D01*
X007258Y002852D01*
X007197Y002896D01*
X007130Y002930D01*
X007059Y002954D01*
X006984Y002965D01*
X006968Y002965D01*
X006968Y002208D01*
X006925Y002208D01*
X006925Y002165D01*
X006468Y002165D01*
X006468Y001849D01*
X006480Y001775D01*
X006503Y001703D01*
X006537Y001636D01*
X006581Y001575D01*
X006635Y001521D01*
X006696Y001477D01*
X006540Y001631D02*
X002326Y001631D01*
X002326Y001787D02*
X006478Y001787D01*
X006468Y001943D02*
X004070Y001943D01*
X004214Y002002D02*
X004458Y002246D01*
X004590Y002565D01*
X004590Y002910D01*
X004458Y003229D01*
X004214Y003473D01*
X003895Y003606D01*
X003549Y003606D01*
X003231Y003473D01*
X002986Y003229D01*
X002854Y002910D01*
X002854Y002565D01*
X002986Y002246D01*
X003231Y002002D01*
X003549Y001870D01*
X003895Y001870D01*
X004214Y002002D01*
X004310Y002099D02*
X006468Y002099D01*
X006468Y002208D02*
X006925Y002208D01*
X006925Y002965D01*
X006909Y002965D01*
X006834Y002954D01*
X006763Y002930D01*
X006696Y002896D01*
X006635Y002852D01*
X006581Y002798D01*
X006537Y002738D01*
X006503Y002670D01*
X006480Y002599D01*
X006468Y002524D01*
X006468Y002208D01*
X006468Y002255D02*
X004461Y002255D01*
X004526Y002411D02*
X006468Y002411D01*
X006474Y002567D02*
X004590Y002567D01*
X004590Y002723D02*
X006529Y002723D01*
X006672Y002879D02*
X004590Y002879D01*
X004538Y003035D02*
X008741Y003035D01*
X008741Y003191D02*
X004474Y003191D01*
X004340Y003347D02*
X008866Y003347D01*
X008868Y003349D02*
X008741Y003222D01*
X008741Y002876D01*
X008698Y002859D01*
X008575Y002735D01*
X008508Y002574D01*
X008508Y001799D01*
X008575Y001638D01*
X008698Y001515D01*
X008859Y001448D01*
X009034Y001448D01*
X009195Y001515D01*
X009318Y001638D01*
X009385Y001799D01*
X009385Y002574D01*
X009318Y002735D01*
X009195Y002859D01*
X009176Y002867D01*
X009176Y003041D01*
X010033Y003898D01*
X017130Y003898D01*
X017148Y003881D01*
X017250Y003838D01*
X017360Y003838D01*
X017462Y003881D01*
X017540Y003959D01*
X017582Y004061D01*
X017582Y004171D01*
X017540Y004273D01*
X017462Y004351D01*
X017360Y004393D01*
X017250Y004393D01*
X017148Y004351D01*
X017130Y004333D01*
X009852Y004333D01*
X008868Y003349D01*
X009022Y003503D02*
X004143Y003503D01*
X003301Y003503D02*
X002326Y003503D01*
X002326Y003659D02*
X009178Y003659D01*
X009334Y003815D02*
X002326Y003815D01*
X002326Y003971D02*
X009490Y003971D01*
X009646Y004127D02*
X002326Y004127D01*
X002326Y004283D02*
X009802Y004283D01*
X009943Y004116D02*
X008958Y003131D01*
X008958Y002198D01*
X008946Y002187D01*
X008508Y002255D02*
X008385Y002255D01*
X008385Y002411D02*
X008508Y002411D01*
X008508Y002567D02*
X008385Y002567D01*
X008385Y002574D02*
X008318Y002735D01*
X008195Y002859D01*
X008034Y002925D01*
X007859Y002925D01*
X007698Y002859D01*
X007575Y002735D01*
X007508Y002574D01*
X007508Y001799D01*
X007575Y001638D01*
X007698Y001515D01*
X007859Y001448D01*
X008034Y001448D01*
X008195Y001515D01*
X008318Y001638D01*
X008385Y001799D01*
X008385Y002574D01*
X008324Y002723D02*
X008569Y002723D01*
X008741Y002879D02*
X008146Y002879D01*
X007747Y002879D02*
X007221Y002879D01*
X007363Y002723D02*
X007569Y002723D01*
X007508Y002567D02*
X007418Y002567D01*
X007425Y002411D02*
X007508Y002411D01*
X007508Y002255D02*
X007425Y002255D01*
X007425Y002165D02*
X006968Y002165D01*
X006968Y001408D01*
X006984Y001408D01*
X007059Y001420D01*
X007130Y001443D01*
X007197Y001477D01*
X007258Y001521D01*
X007312Y001575D01*
X007356Y001636D01*
X007390Y001703D01*
X007413Y001775D01*
X007425Y001849D01*
X007425Y002165D01*
X007425Y002099D02*
X007508Y002099D01*
X007508Y001943D02*
X007425Y001943D01*
X007415Y001787D02*
X007513Y001787D01*
X007582Y001631D02*
X007352Y001631D01*
X007193Y001475D02*
X007794Y001475D01*
X008099Y001475D02*
X008794Y001475D01*
X008582Y001631D02*
X008311Y001631D01*
X008380Y001787D02*
X008513Y001787D01*
X008508Y001943D02*
X008385Y001943D01*
X008385Y002099D02*
X008508Y002099D01*
X009099Y001475D02*
X009794Y001475D01*
X009859Y001448D02*
X009698Y001515D01*
X009575Y001638D01*
X009508Y001799D01*
X009508Y002574D01*
X009575Y002735D01*
X009698Y002859D01*
X009859Y002925D01*
X010034Y002925D01*
X010195Y002859D01*
X010265Y002788D01*
X011291Y003760D01*
X011352Y003821D01*
X011356Y003821D01*
X011358Y003824D01*
X011445Y003821D01*
X011933Y003821D01*
X011951Y003839D01*
X012053Y003881D01*
X012163Y003881D01*
X012265Y003839D01*
X012343Y003761D01*
X012385Y003659D01*
X012385Y003549D01*
X012343Y003447D01*
X012265Y003369D01*
X012163Y003326D01*
X012053Y003326D01*
X011951Y003369D01*
X011933Y003386D01*
X011529Y003386D01*
X010385Y002303D01*
X010385Y001799D01*
X010318Y001638D01*
X010195Y001515D01*
X010034Y001448D01*
X009859Y001448D01*
X010099Y001475D02*
X020472Y001475D01*
X020472Y001631D02*
X010311Y001631D01*
X010380Y001787D02*
X012939Y001787D01*
X013010Y001716D02*
X012866Y001859D01*
X012789Y002046D01*
X012789Y002248D01*
X012866Y002435D01*
X013010Y002579D01*
X013197Y002656D01*
X013399Y002656D01*
X013586Y002579D01*
X013729Y002435D01*
X013806Y002248D01*
X013806Y002046D01*
X013729Y001859D01*
X013586Y001716D01*
X013399Y001639D01*
X013197Y001639D01*
X013010Y001716D01*
X012832Y001943D02*
X010385Y001943D01*
X010385Y002099D02*
X012789Y002099D01*
X012792Y002255D02*
X010385Y002255D01*
X010499Y002411D02*
X012856Y002411D01*
X012998Y002567D02*
X010664Y002567D01*
X010829Y002723D02*
X018209Y002723D01*
X018209Y002879D02*
X010993Y002879D01*
X011158Y003035D02*
X018260Y003035D01*
X018209Y002910D02*
X018341Y003229D01*
X018585Y003473D01*
X018904Y003606D01*
X019249Y003606D01*
X019568Y003473D01*
X019812Y003229D01*
X019944Y002910D01*
X019944Y002565D01*
X019812Y002246D01*
X019568Y002002D01*
X019249Y001870D01*
X018904Y001870D01*
X018585Y002002D01*
X018341Y002246D01*
X018209Y002565D01*
X018209Y002910D01*
X018325Y003191D02*
X011323Y003191D01*
X011487Y003347D02*
X012004Y003347D01*
X012212Y003347D02*
X018458Y003347D01*
X018656Y003503D02*
X012366Y003503D01*
X012385Y003659D02*
X020472Y003659D01*
X020472Y003815D02*
X012290Y003815D01*
X012108Y003604D02*
X011443Y003604D01*
X009946Y002187D01*
X009508Y002255D02*
X009385Y002255D01*
X009385Y002411D02*
X009508Y002411D01*
X009508Y002567D02*
X009385Y002567D01*
X009324Y002723D02*
X009569Y002723D01*
X009747Y002879D02*
X009176Y002879D01*
X009176Y003035D02*
X010526Y003035D01*
X010690Y003191D02*
X009325Y003191D01*
X009481Y003347D02*
X010855Y003347D01*
X011019Y003503D02*
X009637Y003503D01*
X009793Y003659D02*
X011184Y003659D01*
X011346Y003815D02*
X009949Y003815D01*
X009943Y004116D02*
X017305Y004116D01*
X017530Y004283D02*
X020472Y004283D01*
X020472Y004439D02*
X002326Y004439D01*
X002326Y004595D02*
X020472Y004595D01*
X020472Y004751D02*
X019329Y004751D01*
X019465Y004886D02*
X019184Y004606D01*
X019007Y004606D01*
X019007Y005063D01*
X018965Y005063D01*
X018965Y004606D01*
X018788Y004606D01*
X018507Y004886D01*
X018507Y005063D01*
X018965Y005063D01*
X018965Y005106D01*
X018507Y005106D01*
X018507Y005283D01*
X018619Y005394D01*
X018603Y005394D01*
X018425Y005215D01*
X018425Y004903D01*
X018168Y004646D01*
X017804Y004646D01*
X017547Y004903D01*
X017547Y005266D01*
X017804Y005523D01*
X018117Y005523D01*
X018288Y005694D01*
X018288Y005702D01*
X018415Y005829D01*
X018620Y005829D01*
X018547Y005903D01*
X018547Y006266D01*
X018804Y006523D01*
X019168Y006523D01*
X019292Y006399D01*
X019292Y006770D01*
X019168Y006646D01*
X018804Y006646D01*
X018547Y006903D01*
X018547Y007266D01*
X018804Y007523D01*
X019168Y007523D01*
X019292Y007399D01*
X019292Y010364D01*
X019007Y010649D01*
X018982Y010649D01*
X018880Y010692D01*
X018802Y010770D01*
X018760Y010872D01*
X018760Y010897D01*
X018396Y011260D01*
X015472Y011260D01*
X015454Y011243D01*
X015352Y011200D01*
X015242Y011200D01*
X015140Y011243D01*
X015062Y011321D01*
X015019Y011423D01*
X015019Y011533D01*
X015062Y011635D01*
X015140Y011713D01*
X015242Y011755D01*
X015352Y011755D01*
X015454Y011713D01*
X015472Y011695D01*
X018576Y011695D01*
X018703Y011568D01*
X019067Y011204D01*
X019092Y011204D01*
X019194Y011162D01*
X019272Y011084D01*
X019314Y010982D01*
X019314Y010957D01*
X019727Y010544D01*
X019727Y005679D01*
X019600Y005552D01*
X019442Y005394D01*
X019353Y005394D01*
X019465Y005283D01*
X019465Y005106D01*
X019007Y005106D01*
X019007Y005063D01*
X019465Y005063D01*
X019465Y004886D01*
X019465Y004907D02*
X020472Y004907D01*
X020472Y005063D02*
X019465Y005063D01*
X019465Y005218D02*
X020472Y005218D01*
X020472Y005374D02*
X019373Y005374D01*
X019352Y005612D02*
X019509Y005769D01*
X019509Y010454D01*
X019037Y010927D01*
X018486Y011478D01*
X015297Y011478D01*
X015019Y011458D02*
X014450Y011458D01*
X014430Y011477D02*
X014328Y011519D01*
X014218Y011519D01*
X014116Y011477D01*
X014038Y011399D01*
X013996Y011297D01*
X013996Y011187D01*
X014038Y011085D01*
X014116Y011006D01*
X014218Y010964D01*
X014243Y010964D01*
X015001Y010207D01*
X015128Y010079D01*
X015476Y010079D01*
X015494Y010062D01*
X015596Y010019D01*
X015706Y010019D01*
X015808Y010062D01*
X015886Y010140D01*
X015929Y010242D01*
X015929Y010352D01*
X015886Y010454D01*
X015808Y010532D01*
X015706Y010574D01*
X015596Y010574D01*
X015494Y010532D01*
X015476Y010514D01*
X015308Y010514D01*
X014551Y011272D01*
X014551Y011297D01*
X014508Y011399D01*
X014430Y011477D01*
X014549Y011302D02*
X015081Y011302D01*
X014833Y010990D02*
X017030Y010990D01*
X017029Y010987D02*
X016792Y010749D01*
X016792Y005907D01*
X016616Y005731D01*
X013914Y005731D01*
X013817Y005771D01*
X013706Y005771D01*
X013604Y005729D01*
X013526Y005651D01*
X013484Y005549D01*
X013484Y005439D01*
X013526Y005337D01*
X013604Y005258D01*
X013706Y005216D01*
X013817Y005216D01*
X013914Y005257D01*
X016812Y005257D01*
X016951Y005395D01*
X017266Y005710D01*
X017266Y010553D01*
X017365Y010651D01*
X017462Y010692D01*
X017540Y010770D01*
X017582Y010872D01*
X017582Y010982D01*
X017540Y011084D01*
X017462Y011162D01*
X017360Y011204D01*
X017250Y011204D01*
X017148Y011162D01*
X017069Y011084D01*
X017029Y010987D01*
X017131Y011146D02*
X014677Y011146D01*
X014273Y011242D02*
X015218Y010297D01*
X015651Y010297D01*
X015513Y010054D02*
X014942Y010054D01*
X014998Y010210D02*
X014786Y010210D01*
X014842Y010366D02*
X014630Y010366D01*
X014686Y010522D02*
X014474Y010522D01*
X014530Y010678D02*
X014318Y010678D01*
X014374Y010834D02*
X014162Y010834D01*
X014118Y010878D02*
X014118Y010903D01*
X014075Y011005D01*
X013997Y011083D01*
X013895Y011126D01*
X013785Y011126D01*
X013683Y011083D01*
X013605Y011005D01*
X013563Y010903D01*
X013563Y010793D01*
X013605Y010691D01*
X013683Y010613D01*
X013785Y010571D01*
X013810Y010571D01*
X014922Y009459D01*
X014922Y008740D01*
X014904Y008722D01*
X014862Y008620D01*
X014862Y008509D01*
X014904Y008407D01*
X014982Y008329D01*
X015084Y008287D01*
X015195Y008287D01*
X015297Y008329D01*
X015375Y008407D01*
X015417Y008509D01*
X015417Y008620D01*
X015375Y008722D01*
X015357Y008740D01*
X015357Y009639D01*
X014118Y010878D01*
X014082Y010990D02*
X014156Y010990D01*
X014013Y011146D02*
X012509Y011146D01*
X012669Y010990D02*
X013599Y010990D01*
X013563Y010834D02*
X012829Y010834D01*
X012874Y010790D02*
X011476Y012153D01*
X011438Y012245D01*
X011360Y012323D01*
X011258Y012366D01*
X011147Y012366D01*
X011045Y012323D01*
X010967Y012245D01*
X010925Y012143D01*
X010925Y012033D01*
X010967Y011931D01*
X011045Y011853D01*
X011147Y011811D01*
X011147Y011811D01*
X012540Y010453D01*
X012540Y006316D01*
X012500Y006218D01*
X012500Y006108D01*
X012542Y006006D01*
X012620Y005928D01*
X012722Y005886D01*
X012832Y005886D01*
X012934Y005928D01*
X013012Y006006D01*
X013055Y006108D01*
X013055Y006218D01*
X013014Y006316D01*
X013014Y010456D01*
X013016Y010458D01*
X013014Y010554D01*
X013014Y010651D01*
X013013Y010652D01*
X013013Y010654D01*
X012944Y010721D01*
X012875Y010790D01*
X012874Y010790D01*
X012989Y010678D02*
X013199Y010678D01*
X013211Y010690D02*
X013132Y010612D01*
X013090Y010510D01*
X013090Y010399D01*
X013132Y010297D01*
X013150Y010279D01*
X013150Y010010D01*
X014232Y008928D01*
X014232Y008903D01*
X014274Y008801D01*
X014352Y008723D01*
X014454Y008681D01*
X014565Y008681D01*
X014667Y008723D01*
X014745Y008801D01*
X014787Y008903D01*
X014787Y009013D01*
X014745Y009115D01*
X014667Y009194D01*
X014565Y009236D01*
X014540Y009236D01*
X013585Y010190D01*
X013585Y010279D01*
X013603Y010297D01*
X013645Y010399D01*
X013645Y010510D01*
X013603Y010612D01*
X013525Y010690D01*
X013423Y010732D01*
X013313Y010732D01*
X013211Y010690D01*
X013095Y010522D02*
X013015Y010522D01*
X013014Y010366D02*
X013104Y010366D01*
X013150Y010210D02*
X013014Y010210D01*
X013014Y010054D02*
X013150Y010054D01*
X013262Y009898D02*
X013014Y009898D01*
X013014Y009742D02*
X013418Y009742D01*
X013574Y009586D02*
X013014Y009586D01*
X013014Y009430D02*
X013730Y009430D01*
X013886Y009274D02*
X013014Y009274D01*
X013014Y009118D02*
X014042Y009118D01*
X014198Y008962D02*
X013014Y008962D01*
X013014Y008806D02*
X013934Y008806D01*
X013919Y008800D02*
X013841Y008722D01*
X013799Y008620D01*
X013799Y008509D01*
X013841Y008407D01*
X013859Y008390D01*
X013859Y006427D01*
X014301Y005985D01*
X014481Y005985D01*
X016146Y005985D01*
X016163Y005967D01*
X016265Y005925D01*
X016376Y005925D01*
X016478Y005967D01*
X016556Y006045D01*
X016598Y006147D01*
X016598Y006258D01*
X016556Y006360D01*
X016478Y006438D01*
X016376Y006480D01*
X016265Y006480D01*
X016163Y006438D01*
X016146Y006420D01*
X014481Y006420D01*
X014294Y006607D01*
X014294Y008390D01*
X014312Y008407D01*
X014354Y008509D01*
X014354Y008620D01*
X014312Y008722D01*
X014234Y008800D01*
X014132Y008842D01*
X014021Y008842D01*
X013919Y008800D01*
X013811Y008650D02*
X013014Y008650D01*
X013014Y008494D02*
X013805Y008494D01*
X013859Y008338D02*
X013014Y008338D01*
X013014Y008182D02*
X013859Y008182D01*
X013859Y008026D02*
X013014Y008026D01*
X013014Y007870D02*
X013859Y007870D01*
X013859Y007714D02*
X013014Y007714D01*
X013014Y007558D02*
X013859Y007558D01*
X013859Y007402D02*
X013014Y007402D01*
X013014Y007246D02*
X013859Y007246D01*
X013859Y007090D02*
X013014Y007090D01*
X013014Y006934D02*
X013859Y006934D01*
X013859Y006778D02*
X013014Y006778D01*
X013014Y006622D02*
X013859Y006622D01*
X013859Y006466D02*
X013014Y006466D01*
X013016Y006310D02*
X013976Y006310D01*
X014132Y006154D02*
X013055Y006154D01*
X013005Y005998D02*
X014288Y005998D01*
X014391Y006202D02*
X014076Y006517D01*
X014076Y008565D01*
X014341Y008650D02*
X014874Y008650D01*
X014868Y008494D02*
X014348Y008494D01*
X014294Y008338D02*
X014973Y008338D01*
X014982Y008251D02*
X014627Y007895D01*
X014529Y007855D01*
X014451Y007777D01*
X014409Y007675D01*
X014409Y007564D01*
X014451Y007463D01*
X014529Y007384D01*
X014631Y007342D01*
X014742Y007342D01*
X014844Y007384D01*
X014922Y007463D01*
X014962Y007560D01*
X015179Y007776D01*
X015710Y007776D01*
X015849Y007915D01*
X015849Y007915D01*
X016320Y008386D01*
X016320Y008386D01*
X016459Y008525D01*
X016459Y009613D01*
X016500Y009710D01*
X016500Y009821D01*
X016457Y009923D01*
X016379Y010001D01*
X016277Y010043D01*
X016167Y010043D01*
X016065Y010001D01*
X015987Y009923D01*
X015945Y009821D01*
X015945Y009710D01*
X015985Y009613D01*
X015985Y008722D01*
X015514Y008251D01*
X014982Y008251D01*
X014914Y008182D02*
X014294Y008182D01*
X014294Y008026D02*
X014758Y008026D01*
X014566Y007870D02*
X014294Y007870D01*
X014294Y007714D02*
X014425Y007714D01*
X014412Y007558D02*
X014294Y007558D01*
X014294Y007402D02*
X014512Y007402D01*
X014294Y007246D02*
X016792Y007246D01*
X016792Y007090D02*
X014294Y007090D01*
X014294Y006934D02*
X016792Y006934D01*
X016792Y006778D02*
X014294Y006778D01*
X014294Y006622D02*
X016792Y006622D01*
X016792Y006466D02*
X016408Y006466D01*
X016233Y006466D02*
X014435Y006466D01*
X014391Y006202D02*
X016320Y006202D01*
X016509Y005998D02*
X016792Y005998D01*
X016792Y006154D02*
X016598Y006154D01*
X016576Y006310D02*
X016792Y006310D01*
X016727Y005842D02*
X009412Y005842D01*
X009412Y005938D02*
X009373Y006033D01*
X008506Y006899D01*
X008506Y011137D01*
X008527Y011187D01*
X008527Y011297D01*
X008485Y011399D01*
X008407Y011477D01*
X008305Y011519D01*
X008194Y011519D01*
X008092Y011477D01*
X008014Y011399D01*
X007972Y011297D01*
X007972Y011187D01*
X007993Y011137D01*
X007993Y006742D01*
X008032Y006647D01*
X008898Y005781D01*
X008898Y005087D01*
X008878Y005037D01*
X008878Y004927D01*
X008920Y004825D01*
X008998Y004747D01*
X009100Y004704D01*
X009210Y004704D01*
X009312Y004747D01*
X009390Y004825D01*
X009433Y004927D01*
X009433Y005037D01*
X009412Y005087D01*
X009412Y005938D01*
X009387Y005998D02*
X012549Y005998D01*
X012500Y006154D02*
X009251Y006154D01*
X009095Y006310D02*
X012538Y006310D01*
X012540Y006466D02*
X008939Y006466D01*
X008783Y006622D02*
X012540Y006622D01*
X012540Y006778D02*
X010905Y006778D01*
X010859Y006733D02*
X011508Y007382D01*
X011580Y007382D01*
X011697Y007430D01*
X011786Y007519D01*
X011834Y007635D01*
X011834Y007761D01*
X011786Y007878D01*
X011697Y007967D01*
X011580Y008015D01*
X011454Y008015D01*
X011338Y007967D01*
X011249Y007878D01*
X011200Y007761D01*
X011200Y007689D01*
X010679Y007168D01*
X010449Y007168D01*
X010398Y007219D01*
X010281Y007267D01*
X010155Y007267D01*
X010039Y007219D01*
X009949Y007130D01*
X009901Y007013D01*
X009901Y006887D01*
X009949Y006771D01*
X010039Y006682D01*
X010155Y006634D01*
X010281Y006634D01*
X010398Y006682D01*
X010449Y006733D01*
X010859Y006733D01*
X010769Y006950D02*
X011517Y007698D01*
X011630Y007402D02*
X012540Y007402D01*
X012540Y007246D02*
X011373Y007246D01*
X011217Y007090D02*
X012540Y007090D01*
X012540Y006934D02*
X011061Y006934D01*
X010769Y006950D02*
X010218Y006950D01*
X009901Y006934D02*
X008506Y006934D01*
X008506Y007090D02*
X009933Y007090D01*
X010104Y007246D02*
X008506Y007246D01*
X008506Y007402D02*
X010914Y007402D01*
X011070Y007558D02*
X008506Y007558D01*
X008506Y007714D02*
X011200Y007714D01*
X011245Y007870D02*
X008506Y007870D01*
X008506Y008026D02*
X012540Y008026D01*
X012540Y007870D02*
X011789Y007870D01*
X011834Y007714D02*
X012540Y007714D01*
X012540Y007558D02*
X011802Y007558D01*
X012540Y008182D02*
X008506Y008182D01*
X008506Y008338D02*
X012540Y008338D01*
X012540Y008494D02*
X008506Y008494D01*
X008506Y008650D02*
X012540Y008650D01*
X012540Y008806D02*
X008506Y008806D01*
X008506Y008962D02*
X012540Y008962D01*
X012540Y009118D02*
X008506Y009118D01*
X008506Y009274D02*
X012540Y009274D01*
X012540Y009430D02*
X008506Y009430D01*
X008506Y009586D02*
X012540Y009586D01*
X012540Y009742D02*
X008506Y009742D01*
X008506Y009898D02*
X012540Y009898D01*
X012540Y010054D02*
X008506Y010054D01*
X008506Y010210D02*
X012540Y010210D01*
X012540Y010366D02*
X008506Y010366D01*
X008506Y010522D02*
X012469Y010522D01*
X012309Y010678D02*
X008506Y010678D01*
X008506Y010834D02*
X012149Y010834D01*
X011989Y010990D02*
X008506Y010990D01*
X008510Y011146D02*
X011829Y011146D01*
X011669Y011302D02*
X008525Y011302D01*
X008426Y011458D02*
X011509Y011458D01*
X011349Y011614D02*
X002326Y011614D01*
X002326Y011770D02*
X011189Y011770D01*
X010972Y011926D02*
X002326Y011926D01*
X002326Y012082D02*
X010925Y012082D01*
X010964Y012238D02*
X002326Y012238D01*
X002326Y012394D02*
X020472Y012394D01*
X020472Y012550D02*
X002326Y012550D01*
X002326Y012706D02*
X020472Y012706D01*
X020472Y012862D02*
X002326Y012862D01*
X002326Y013018D02*
X020472Y013018D01*
X020472Y013173D02*
X002326Y013173D01*
X002326Y013329D02*
X020472Y013329D01*
X020472Y013485D02*
X002326Y013485D01*
X002326Y013641D02*
X020472Y013641D01*
X020472Y013797D02*
X002326Y013797D01*
X002326Y013953D02*
X020472Y013953D01*
X020472Y014109D02*
X002326Y014109D01*
X002326Y014265D02*
X020472Y014265D01*
X020472Y014421D02*
X002326Y014421D01*
X002326Y014577D02*
X020472Y014577D01*
X020472Y014733D02*
X002326Y014733D01*
X002326Y014889D02*
X003484Y014889D01*
X003549Y014862D02*
X003895Y014862D01*
X004214Y014994D01*
X004458Y015238D01*
X004590Y015557D01*
X004590Y015903D01*
X004458Y016221D01*
X004214Y016466D01*
X003895Y016598D01*
X003549Y016598D01*
X003231Y016466D01*
X002986Y016221D01*
X002854Y015903D01*
X002854Y015557D01*
X002986Y015238D01*
X003231Y014994D01*
X003549Y014862D01*
X003960Y014889D02*
X018838Y014889D01*
X018904Y014862D02*
X019249Y014862D01*
X019568Y014994D01*
X019812Y015238D01*
X019944Y015557D01*
X019944Y015903D01*
X019812Y016221D01*
X019568Y016466D01*
X019249Y016598D01*
X018904Y016598D01*
X018585Y016466D01*
X018341Y016221D01*
X018209Y015903D01*
X018209Y015557D01*
X018341Y015238D01*
X018585Y014994D01*
X018904Y014862D01*
X018534Y015045D02*
X004265Y015045D01*
X004421Y015201D02*
X018378Y015201D01*
X018292Y015357D02*
X004507Y015357D01*
X004571Y015513D02*
X008334Y015513D01*
X008338Y015509D02*
X008536Y015427D01*
X008750Y015427D01*
X008948Y015509D01*
X009100Y015661D01*
X009182Y015859D01*
X009182Y016073D01*
X009100Y016271D01*
X008948Y016423D01*
X008750Y016505D01*
X008536Y016505D01*
X008338Y016423D01*
X008187Y016271D01*
X008105Y016073D01*
X008105Y015859D01*
X008187Y015661D01*
X008338Y015509D01*
X008183Y015669D02*
X004590Y015669D01*
X004590Y015825D02*
X008119Y015825D01*
X008105Y015981D02*
X004557Y015981D01*
X004493Y016137D02*
X008131Y016137D01*
X008208Y016293D02*
X004386Y016293D01*
X004230Y016449D02*
X008401Y016449D01*
X008885Y016449D02*
X010099Y016449D01*
X010073Y016424D02*
X010154Y016505D01*
X011069Y016505D01*
X011151Y016424D01*
X011151Y015509D01*
X011069Y015427D01*
X010154Y015427D01*
X010073Y015509D01*
X010073Y016424D01*
X010073Y016293D02*
X009078Y016293D01*
X009156Y016137D02*
X010073Y016137D01*
X010073Y015981D02*
X009182Y015981D01*
X009168Y015825D02*
X010073Y015825D01*
X010073Y015669D02*
X009103Y015669D01*
X008952Y015513D02*
X010073Y015513D01*
X011151Y015513D02*
X018227Y015513D01*
X018209Y015669D02*
X011151Y015669D01*
X011151Y015825D02*
X018209Y015825D01*
X018241Y015981D02*
X011151Y015981D01*
X011151Y016137D02*
X018306Y016137D01*
X018412Y016293D02*
X011151Y016293D01*
X011125Y016449D02*
X018568Y016449D01*
X019584Y016449D02*
X020472Y016449D01*
X020472Y016293D02*
X019740Y016293D01*
X019847Y016137D02*
X020472Y016137D01*
X020472Y015981D02*
X019912Y015981D01*
X019944Y015825D02*
X020472Y015825D01*
X020472Y015669D02*
X019944Y015669D01*
X019926Y015513D02*
X020472Y015513D01*
X020472Y015357D02*
X019861Y015357D01*
X019775Y015201D02*
X020472Y015201D01*
X020472Y015045D02*
X019619Y015045D01*
X019314Y014889D02*
X020472Y014889D01*
X020472Y016605D02*
X002326Y016605D01*
X002326Y016449D02*
X003214Y016449D01*
X003058Y016293D02*
X002326Y016293D01*
X002326Y016137D02*
X002952Y016137D01*
X002887Y015981D02*
X002326Y015981D01*
X002326Y015825D02*
X002854Y015825D01*
X002854Y015669D02*
X002326Y015669D01*
X002326Y015513D02*
X002873Y015513D01*
X002937Y015357D02*
X002326Y015357D01*
X002326Y015201D02*
X003024Y015201D01*
X003180Y015045D02*
X002326Y015045D01*
X002326Y016761D02*
X020472Y016761D01*
X020472Y016917D02*
X002326Y016917D01*
X002326Y017073D02*
X020472Y017073D01*
X020472Y012238D02*
X011441Y012238D01*
X011549Y012082D02*
X020472Y012082D01*
X020472Y011926D02*
X011709Y011926D01*
X011869Y011770D02*
X020472Y011770D01*
X020472Y011614D02*
X018658Y011614D01*
X018814Y011458D02*
X020472Y011458D01*
X020472Y011302D02*
X018970Y011302D01*
X019210Y011146D02*
X020472Y011146D01*
X020472Y010990D02*
X019311Y010990D01*
X019438Y010834D02*
X020472Y010834D01*
X020472Y010678D02*
X019594Y010678D01*
X019727Y010522D02*
X020472Y010522D01*
X020472Y010366D02*
X019727Y010366D01*
X019727Y010210D02*
X020472Y010210D01*
X020472Y010054D02*
X019727Y010054D01*
X019727Y009898D02*
X020472Y009898D01*
X020472Y009742D02*
X019727Y009742D01*
X019727Y009586D02*
X020472Y009586D01*
X020472Y009430D02*
X019727Y009430D01*
X019727Y009274D02*
X020472Y009274D01*
X020472Y009118D02*
X019727Y009118D01*
X019727Y008962D02*
X020472Y008962D01*
X020472Y008806D02*
X019727Y008806D01*
X019727Y008650D02*
X020472Y008650D01*
X020472Y008494D02*
X019727Y008494D01*
X019727Y008338D02*
X020472Y008338D01*
X020472Y008182D02*
X019727Y008182D01*
X019727Y008026D02*
X020472Y008026D01*
X020472Y007870D02*
X019727Y007870D01*
X019727Y007714D02*
X020472Y007714D01*
X020472Y007558D02*
X019727Y007558D01*
X019727Y007402D02*
X020472Y007402D01*
X020472Y007246D02*
X019727Y007246D01*
X019727Y007090D02*
X020472Y007090D01*
X020472Y006934D02*
X019727Y006934D01*
X019727Y006778D02*
X020472Y006778D01*
X020472Y006622D02*
X019727Y006622D01*
X019727Y006466D02*
X020472Y006466D01*
X020472Y006310D02*
X019727Y006310D01*
X019727Y006154D02*
X020472Y006154D01*
X020472Y005998D02*
X019727Y005998D01*
X019727Y005842D02*
X020472Y005842D01*
X020472Y005686D02*
X019727Y005686D01*
X019578Y005530D02*
X020472Y005530D01*
X019352Y005612D02*
X018506Y005612D01*
X018506Y005604D01*
X017986Y005084D01*
X017547Y005063D02*
X009422Y005063D01*
X009412Y005218D02*
X013701Y005218D01*
X013822Y005218D02*
X017547Y005218D01*
X017656Y005374D02*
X016930Y005374D01*
X017086Y005530D02*
X018124Y005530D01*
X018168Y005646D02*
X017804Y005646D01*
X017547Y005903D01*
X017547Y006266D01*
X017804Y006523D01*
X018168Y006523D01*
X018425Y006266D01*
X018425Y005903D01*
X018168Y005646D01*
X018208Y005686D02*
X018280Y005686D01*
X018364Y005842D02*
X018607Y005842D01*
X018547Y005998D02*
X018425Y005998D01*
X018425Y006154D02*
X018547Y006154D01*
X018591Y006310D02*
X018380Y006310D01*
X018224Y006466D02*
X018747Y006466D01*
X018671Y006778D02*
X018300Y006778D01*
X018358Y006836D02*
X018425Y006997D01*
X018425Y007172D01*
X018420Y007183D01*
X018486Y007249D01*
X018625Y007388D01*
X018625Y010164D01*
X018665Y010261D01*
X018665Y010372D01*
X018623Y010474D01*
X018545Y010552D01*
X018443Y010594D01*
X018332Y010594D01*
X018230Y010552D01*
X018152Y010474D01*
X018110Y010372D01*
X018110Y010261D01*
X018150Y010164D01*
X018150Y007584D01*
X018084Y007518D01*
X018073Y007523D01*
X017899Y007523D01*
X017737Y007456D01*
X017614Y007333D01*
X017547Y007172D01*
X017547Y006997D01*
X017614Y006836D01*
X017737Y006712D01*
X017899Y006646D01*
X018073Y006646D01*
X018234Y006712D01*
X018358Y006836D01*
X018399Y006934D02*
X018547Y006934D01*
X018547Y007090D02*
X018425Y007090D01*
X018483Y007246D02*
X018547Y007246D01*
X018486Y007249D02*
X018486Y007249D01*
X018625Y007402D02*
X018683Y007402D01*
X018625Y007558D02*
X019292Y007558D01*
X019288Y007402D02*
X019292Y007402D01*
X019292Y007714D02*
X018625Y007714D01*
X018625Y007870D02*
X019292Y007870D01*
X019292Y008026D02*
X018625Y008026D01*
X018625Y008182D02*
X019292Y008182D01*
X019292Y008338D02*
X018625Y008338D01*
X018625Y008494D02*
X019292Y008494D01*
X019292Y008650D02*
X018625Y008650D01*
X018625Y008806D02*
X019292Y008806D01*
X019292Y008962D02*
X018625Y008962D01*
X018625Y009118D02*
X019292Y009118D01*
X019292Y009274D02*
X018625Y009274D01*
X018625Y009430D02*
X019292Y009430D01*
X019292Y009586D02*
X018625Y009586D01*
X018625Y009742D02*
X019292Y009742D01*
X019292Y009898D02*
X018625Y009898D01*
X018625Y010054D02*
X019292Y010054D01*
X019292Y010210D02*
X018644Y010210D01*
X018665Y010366D02*
X019290Y010366D01*
X019134Y010522D02*
X018575Y010522D01*
X018775Y010834D02*
X017567Y010834D01*
X017579Y010990D02*
X018666Y010990D01*
X018510Y011146D02*
X017478Y011146D01*
X017429Y010678D02*
X018913Y010678D01*
X018200Y010522D02*
X017266Y010522D01*
X017266Y010366D02*
X018110Y010366D01*
X018131Y010210D02*
X017266Y010210D01*
X017266Y010054D02*
X018150Y010054D01*
X018150Y009898D02*
X017266Y009898D01*
X017266Y009742D02*
X018150Y009742D01*
X018150Y009586D02*
X017266Y009586D01*
X017266Y009430D02*
X018150Y009430D01*
X018150Y009274D02*
X017266Y009274D01*
X017266Y009118D02*
X018150Y009118D01*
X018150Y008962D02*
X017266Y008962D01*
X017266Y008806D02*
X018150Y008806D01*
X018150Y008650D02*
X017266Y008650D01*
X017266Y008494D02*
X018150Y008494D01*
X018150Y008338D02*
X017266Y008338D01*
X017266Y008182D02*
X018150Y008182D01*
X018150Y008026D02*
X017266Y008026D01*
X017266Y007870D02*
X018150Y007870D01*
X018150Y007714D02*
X017266Y007714D01*
X017266Y007558D02*
X018124Y007558D01*
X017683Y007402D02*
X017266Y007402D01*
X017266Y007246D02*
X017578Y007246D01*
X017547Y007090D02*
X017266Y007090D01*
X017266Y006934D02*
X017573Y006934D01*
X017671Y006778D02*
X017266Y006778D01*
X017266Y006622D02*
X019292Y006622D01*
X019292Y006466D02*
X019224Y006466D01*
X018599Y005374D02*
X018584Y005374D01*
X018507Y005218D02*
X018428Y005218D01*
X018425Y005063D02*
X018507Y005063D01*
X018507Y004907D02*
X018425Y004907D01*
X018273Y004751D02*
X018642Y004751D01*
X018965Y004751D02*
X019007Y004751D01*
X019007Y004907D02*
X018965Y004907D01*
X018965Y005063D02*
X019007Y005063D01*
X017699Y004751D02*
X009316Y004751D01*
X009424Y004907D02*
X017547Y004907D01*
X017763Y005686D02*
X017242Y005686D01*
X017266Y005842D02*
X017607Y005842D01*
X017547Y005998D02*
X017266Y005998D01*
X017266Y006154D02*
X017547Y006154D01*
X017591Y006310D02*
X017266Y006310D01*
X017266Y006466D02*
X017747Y006466D01*
X016792Y007402D02*
X014862Y007402D01*
X014961Y007558D02*
X016792Y007558D01*
X016792Y007714D02*
X015117Y007714D01*
X015305Y008338D02*
X015601Y008338D01*
X015757Y008494D02*
X015411Y008494D01*
X015404Y008650D02*
X015913Y008650D01*
X015985Y008806D02*
X015357Y008806D01*
X015357Y008962D02*
X015985Y008962D01*
X015985Y009118D02*
X015357Y009118D01*
X015357Y009274D02*
X015985Y009274D01*
X015985Y009430D02*
X015357Y009430D01*
X015357Y009586D02*
X015985Y009586D01*
X015945Y009742D02*
X015254Y009742D01*
X015098Y009898D02*
X015977Y009898D01*
X015790Y010054D02*
X016792Y010054D01*
X016792Y010210D02*
X015915Y010210D01*
X015923Y010366D02*
X016792Y010366D01*
X016792Y010522D02*
X015819Y010522D01*
X015484Y010522D02*
X015301Y010522D01*
X015145Y010678D02*
X016792Y010678D01*
X016876Y010834D02*
X014989Y010834D01*
X014327Y010054D02*
X013721Y010054D01*
X013585Y010210D02*
X014171Y010210D01*
X014015Y010366D02*
X013631Y010366D01*
X013640Y010522D02*
X013859Y010522D01*
X013618Y010678D02*
X013537Y010678D01*
X013368Y010454D02*
X013368Y010100D01*
X014509Y008958D01*
X014787Y008962D02*
X014922Y008962D01*
X014922Y008806D02*
X014747Y008806D01*
X015139Y008565D02*
X015139Y009549D01*
X013840Y010848D01*
X013998Y011302D02*
X012349Y011302D01*
X012189Y011458D02*
X014097Y011458D01*
X015053Y011614D02*
X012029Y011614D01*
X013877Y009898D02*
X014483Y009898D01*
X014639Y009742D02*
X014033Y009742D01*
X014189Y009586D02*
X014795Y009586D01*
X014922Y009430D02*
X014345Y009430D01*
X014501Y009274D02*
X014922Y009274D01*
X014922Y009118D02*
X014742Y009118D01*
X014272Y008806D02*
X014218Y008806D01*
X015804Y007870D02*
X016792Y007870D01*
X016792Y008026D02*
X015960Y008026D01*
X016116Y008182D02*
X016792Y008182D01*
X016792Y008338D02*
X016272Y008338D01*
X016428Y008494D02*
X016792Y008494D01*
X016792Y008650D02*
X016459Y008650D01*
X016459Y008806D02*
X016792Y008806D01*
X016792Y008962D02*
X016459Y008962D01*
X016459Y009118D02*
X016792Y009118D01*
X016792Y009274D02*
X016459Y009274D01*
X016459Y009430D02*
X016792Y009430D01*
X016792Y009586D02*
X016459Y009586D01*
X016500Y009742D02*
X016792Y009742D01*
X016792Y009898D02*
X016467Y009898D01*
X013562Y005686D02*
X009412Y005686D01*
X009412Y005530D02*
X013484Y005530D01*
X013510Y005374D02*
X009412Y005374D01*
X008898Y005374D02*
X002326Y005374D01*
X002326Y005218D02*
X008898Y005218D01*
X008888Y005063D02*
X002326Y005063D01*
X002326Y004907D02*
X008886Y004907D01*
X008994Y004751D02*
X002326Y004751D01*
X002326Y005530D02*
X008898Y005530D01*
X008898Y005686D02*
X002326Y005686D01*
X002326Y005842D02*
X004157Y005842D01*
X004111Y005861D02*
X004242Y005807D01*
X004383Y005807D01*
X004514Y005861D01*
X004614Y005961D01*
X004669Y006092D01*
X004669Y006234D01*
X004614Y006365D01*
X004514Y006465D01*
X004383Y006519D01*
X004242Y006519D01*
X004111Y006465D01*
X004011Y006365D01*
X003957Y006234D01*
X003957Y006092D01*
X004011Y005961D01*
X004111Y005861D01*
X003996Y005998D02*
X002326Y005998D01*
X002326Y006154D02*
X003957Y006154D01*
X003988Y006310D02*
X002326Y006310D01*
X002326Y006466D02*
X004115Y006466D01*
X004510Y006466D02*
X006438Y006466D01*
X006438Y006310D02*
X004637Y006310D01*
X004669Y006154D02*
X006438Y006154D01*
X006438Y006065D02*
X006515Y005987D01*
X006515Y005942D01*
X006564Y005826D01*
X006653Y005737D01*
X006769Y005689D01*
X006895Y005689D01*
X007012Y005737D01*
X007101Y005826D01*
X007149Y005942D01*
X007149Y006069D01*
X007101Y006185D01*
X007012Y006274D01*
X006912Y006315D01*
X006912Y007645D01*
X006943Y007676D01*
X006992Y007793D01*
X006992Y007919D01*
X006943Y008035D01*
X006854Y008125D01*
X006738Y008173D01*
X006612Y008173D01*
X006495Y008125D01*
X006406Y008035D01*
X006358Y007919D01*
X006358Y007793D01*
X006406Y007676D01*
X006438Y007645D01*
X006438Y006065D01*
X006504Y005998D02*
X004630Y005998D01*
X004469Y005842D02*
X006557Y005842D01*
X007108Y005842D02*
X008837Y005842D01*
X008681Y005998D02*
X007149Y005998D01*
X007114Y006154D02*
X008525Y006154D01*
X008369Y006310D02*
X006924Y006310D01*
X006912Y006466D02*
X008213Y006466D01*
X008057Y006622D02*
X006912Y006622D01*
X006912Y006778D02*
X007993Y006778D01*
X007993Y006934D02*
X006912Y006934D01*
X006912Y007090D02*
X007993Y007090D01*
X007993Y007246D02*
X006912Y007246D01*
X006912Y007402D02*
X007993Y007402D01*
X007993Y007558D02*
X006912Y007558D01*
X006959Y007714D02*
X007993Y007714D01*
X007993Y007870D02*
X006992Y007870D01*
X006947Y008026D02*
X007993Y008026D01*
X007993Y008182D02*
X004529Y008182D01*
X004514Y008197D02*
X004383Y008251D01*
X004242Y008251D01*
X004111Y008197D01*
X004011Y008097D01*
X003957Y007966D01*
X003957Y007824D01*
X004011Y007694D01*
X004111Y007594D01*
X004242Y007539D01*
X004383Y007539D01*
X004514Y007594D01*
X004614Y007694D01*
X004669Y007824D01*
X004669Y007966D01*
X004614Y008097D01*
X004514Y008197D01*
X004644Y008026D02*
X006402Y008026D01*
X006358Y007870D02*
X004669Y007870D01*
X004623Y007714D02*
X006391Y007714D01*
X006438Y007558D02*
X004429Y007558D01*
X004196Y007558D02*
X002326Y007558D01*
X002326Y007402D02*
X006438Y007402D01*
X006438Y007246D02*
X002326Y007246D01*
X002326Y007090D02*
X006438Y007090D01*
X006438Y006934D02*
X002326Y006934D01*
X002326Y006778D02*
X006438Y006778D01*
X006438Y006622D02*
X002326Y006622D01*
X002326Y007714D02*
X004002Y007714D01*
X003957Y007870D02*
X002326Y007870D01*
X002326Y008026D02*
X003982Y008026D01*
X004096Y008182D02*
X002326Y008182D01*
X002326Y008338D02*
X007993Y008338D01*
X007993Y008494D02*
X002326Y008494D01*
X002326Y008650D02*
X007993Y008650D01*
X007993Y008806D02*
X002326Y008806D01*
X002326Y008962D02*
X007993Y008962D01*
X007993Y009118D02*
X002326Y009118D01*
X002326Y009274D02*
X007993Y009274D01*
X007993Y009430D02*
X002326Y009430D01*
X002326Y009586D02*
X007993Y009586D01*
X007993Y009742D02*
X002326Y009742D01*
X002326Y009898D02*
X007993Y009898D01*
X007993Y010054D02*
X002326Y010054D01*
X002326Y010210D02*
X007993Y010210D01*
X007993Y010366D02*
X002326Y010366D01*
X002326Y010522D02*
X007993Y010522D01*
X007993Y010678D02*
X002326Y010678D01*
X002326Y010834D02*
X007993Y010834D01*
X007993Y010990D02*
X002326Y010990D01*
X002326Y011146D02*
X007989Y011146D01*
X007974Y011302D02*
X002326Y011302D01*
X002326Y011458D02*
X008073Y011458D01*
X010332Y007246D02*
X010758Y007246D01*
X009946Y006778D02*
X008627Y006778D01*
X010146Y002879D02*
X010361Y002879D01*
X009508Y002099D02*
X009385Y002099D01*
X009385Y001943D02*
X009508Y001943D01*
X009513Y001787D02*
X009380Y001787D01*
X009311Y001631D02*
X009582Y001631D01*
X006968Y001631D02*
X006925Y001631D01*
X006925Y001787D02*
X006968Y001787D01*
X006968Y001943D02*
X006925Y001943D01*
X006925Y002099D02*
X006968Y002099D01*
X006968Y002255D02*
X006925Y002255D01*
X006925Y002411D02*
X006968Y002411D01*
X006968Y002567D02*
X006925Y002567D01*
X006925Y002723D02*
X006968Y002723D01*
X006968Y002879D02*
X006925Y002879D01*
X006925Y001475D02*
X006968Y001475D01*
X003374Y001943D02*
X002326Y001943D01*
X002326Y002099D02*
X003134Y002099D01*
X002983Y002255D02*
X002326Y002255D01*
X002326Y002411D02*
X002918Y002411D01*
X002854Y002567D02*
X002326Y002567D01*
X002326Y002723D02*
X002854Y002723D01*
X002854Y002879D02*
X002326Y002879D01*
X002326Y003035D02*
X002906Y003035D01*
X002970Y003191D02*
X002326Y003191D01*
X002326Y003347D02*
X003104Y003347D01*
X013598Y002567D02*
X014138Y002567D01*
X014150Y002579D02*
X014006Y002435D01*
X013929Y002248D01*
X013929Y002046D01*
X014006Y001859D01*
X014150Y001716D01*
X014337Y001639D01*
X014539Y001639D01*
X014726Y001716D01*
X014869Y001859D01*
X014946Y002046D01*
X014946Y002248D01*
X014869Y002435D01*
X014726Y002579D01*
X014539Y002656D01*
X014337Y002656D01*
X014150Y002579D01*
X013996Y002411D02*
X013739Y002411D01*
X013804Y002255D02*
X013932Y002255D01*
X013929Y002099D02*
X013806Y002099D01*
X013764Y001943D02*
X013972Y001943D01*
X014079Y001787D02*
X013657Y001787D01*
X014797Y001787D02*
X020472Y001787D01*
X020472Y001943D02*
X019425Y001943D01*
X019665Y002099D02*
X020472Y002099D01*
X020472Y002255D02*
X019816Y002255D01*
X019880Y002411D02*
X020472Y002411D01*
X020472Y002567D02*
X019944Y002567D01*
X019944Y002723D02*
X020472Y002723D01*
X020472Y002879D02*
X019944Y002879D01*
X019893Y003035D02*
X020472Y003035D01*
X020472Y003191D02*
X019828Y003191D01*
X019695Y003347D02*
X020472Y003347D01*
X020472Y003503D02*
X019497Y003503D01*
X020472Y003971D02*
X017545Y003971D01*
X017582Y004127D02*
X020472Y004127D01*
X018273Y002411D02*
X014879Y002411D01*
X014944Y002255D02*
X018337Y002255D01*
X018488Y002099D02*
X014946Y002099D01*
X014904Y001943D02*
X018728Y001943D01*
X018209Y002567D02*
X014738Y002567D01*
D19*
X010218Y006950D03*
X011517Y007698D03*
X006832Y006006D03*
X006675Y007856D03*
D20*
X008250Y006793D02*
X009155Y005887D01*
X009155Y004982D01*
X008250Y006793D02*
X008250Y011242D01*
M02*
