  0
SECTION
  2
HEADER
  9
$ACADVER
  1
AC1009
  9
$FILLMODE
 70
0
  9
$EXTMIN
 10
-5.2000
 20
-2.7000
 30
0.0000
  9
$EXTMAX
 10
53.7000
 20
53.2000
 30
0.0000
  0
ENDSEC
  0
SECTION
  2
TABLES
  0
TABLE
  2
LTYPE
 70
1
  0
LTYPE
  2
CONTINUOUS
 70
64
  3
Solid line
 72
65
 73
0
 40
0
  0
ENDTAB
  0
TABLE
  2
LAYER
 70
255
  0
LAYER
  2
31
 70
64
 62
253
  6
CONTINUOUS
  0
LAYER
  2
48
 70
64
 62
253
  6
CONTINUOUS
  0
LAYER
  2
49
 70
64
 62
253
  6
CONTINUOUS
  0
ENDTAB
  0
ENDSEC
  0
SECTION
  2
BLOCKS
  0
BLOCK
  8
0
  2
RECT
 70
64
 10
0.0000
 20
0.0000
 30
0.0000
  3
RECT
  0
SOLID
  8
0
 10
-0.5000
 20
-0.5000
 30
0.0000
 11
0.5000
 21
-0.5000
 31
0.0000
 12
-0.5000
 22
0.5000
 32
0.0000
 13
0.5000
 23
0.5000
 33
0.0000
  0
ENDBLK
  8
0
  0
BLOCK
  8
0
  2
PIE
 70
64
 10
0.0000
 20
0.0000
 30
0.0000
  3
PIE
  0
CIRCLE
  8
0
 10
0.0000
 20
0.0000
 30
0.0000
 40
0.5000
  0
ENDBLK
  8
0
  0
BLOCK
  8
0
  2
OCTAGONP
 70
64
 10
0.0000
 20
0.0000
 30
0.0000
  3
OCTAGONP
  0
POLYLINE
  8
0
 66
1
 10
0.0000
 20
0.0000
 30
0.0000
 40
0.0000
 41
0.0000
 70
1
  0
VERTEX
  8
0
 10
-0.5000
 20
-0.2071
 30
0.0000
  0
VERTEX
  8
0
 10
-0.5000
 20
0.2071
 30
0.0000
  0
VERTEX
  8
0
 10
-0.2071
 20
0.5000
 30
0.0000
  0
VERTEX
  8
0
 10
0.2071
 20
0.5000
 30
0.0000
  0
VERTEX
  8
0
 10
0.5000
 20
0.2071
 30
0.0000
  0
VERTEX
  8
0
 10
0.5000
 20
-0.2071
 30
0.0000
  0
VERTEX
  8
0
 10
0.2071
 20
-0.5000
 30
0.0000
  0
VERTEX
  8
0
 10
-0.2071
 20
-0.5000
 30
0.0000
  0
SEQEND
  8
0
  0
ENDBLK
  8
0
  0
BLOCK
  8
0
  2
SQUAREP
 70
64
 10
0.0000
 20
0.0000
 30
0.0000
  3
SQUAREP
  0
SOLID
  8
0
 10
-0.5000
 20
-0.5000
 30
0.0000
 11
0.5000
 21
-0.5000
 31
0.0000
 12
-0.5000
 22
0.5000
 32
0.0000
 13
0.5000
 23
0.5000
 33
0.0000
  0
ENDBLK
  8
0
  0
BLOCK
  8
0
  2
ROUNDP
 70
64
 10
0.0000
 20
0.0000
 30
0.0000
  3
ROUNDP
  0
CIRCLE
  8
0
 10
0.0000
 20
0.0000
 30
0.0000
 40
0.5000
  0
ENDBLK
  8
0
  0
BLOCK
  8
0
  2
ANNULUSP
 70
64
 10
0.0000
 20
0.0000
 30
0.0000
  3
ANNULUSP
  0
CIRCLE
  8
0
 10
0.0000
 20
0.0000
 30
0.0000
 40
0.5000
  0
ENDBLK
  8
0
  0
BLOCK
  8
0
  2
THERMALP
 70
64
 10
0.0000
 20
0.0000
 30
0.0000
  3
THERMALP
  0
POLYLINE
  8
0
 66
1
 10
0.0000
 20
0.0000
 30
0.0000
 40
0.0000
 41
0.0000
 70
1
  0
VERTEX
  8
0
 10
-0.2379
 20
0.4000
 30
0.0000
  0
VERTEX
  8
0
 10
0.2379
 20
0.4000
 30
0.0000
 42
1.0000
  0
VERTEX
  8
0
 10
0.2379
 20
0.5000
 30
0.0000
  0
VERTEX
  8
0
 10
-0.2379
 20
0.5000
 30
0.0000
 42
1.0000
  0
SEQEND
  8
0
  0
POLYLINE
  8
0
 66
1
 10
0.0000
 20
0.0000
 30
0.0000
 40
0.0000
 41
0.0000
 70
1
  0
VERTEX
  8
0
 10
0.4000
 20
0.2379
 30
0.0000
  0
VERTEX
  8
0
 10
0.4000
 20
-0.2379
 30
0.0000
 42
1.0000
  0
VERTEX
  8
0
 10
0.5000
 20
-0.2379
 30
0.0000
  0
VERTEX
  8
0
 10
0.5000
 20
0.2379
 30
0.0000
 42
1.0000
  0
SEQEND
  8
0
  0
POLYLINE
  8
0
 66
1
 10
0.0000
 20
0.0000
 30
0.0000
 40
0.0000
 41
0.0000
 70
1
  0
VERTEX
  8
0
 10
0.2379
 20
-0.4000
 30
0.0000
  0
VERTEX
  8
0
 10
-0.2379
 20
-0.4000
 30
0.0000
 42
1.0000
  0
VERTEX
  8
0
 10
-0.2379
 20
-0.5000
 30
0.0000
  0
VERTEX
  8
0
 10
0.2379
 20
-0.5000
 30
0.0000
 42
1.0000
  0
SEQEND
  8
0
  0
POLYLINE
  8
0
 66
1
 10
0.0000
 20
0.0000
 30
0.0000
 40
0.0000
 41
0.0000
 70
1
  0
VERTEX
  8
0
 10
-0.4000
 20
-0.2379
 30
0.0000
  0
VERTEX
  8
0
 10
-0.4000
 20
0.2379
 30
0.0000
 42
1.0000
  0
VERTEX
  8
0
 10
-0.5000
 20
0.2379
 30
0.0000
  0
VERTEX
  8
0
 10
-0.5000
 20
-0.2379
 30
0.0000
 42
1.0000
  0
SEQEND
  8
0
  0
ENDBLK
  8
0
  0
BLOCK
  8
0
  2
OCTAGONV
 70
64
 10
0.0000
 20
0.0000
 30
0.0000
  3
OCTAGONV
  0
POLYLINE
  8
0
 66
1
 10
0.0000
 20
0.0000
 30
0.0000
 40
0.0000
 41
0.0000
 70
1
  0
VERTEX
  8
0
 10
-0.5000
 20
-0.2071
 30
0.0000
  0
VERTEX
  8
0
 10
-0.5000
 20
0.2071
 30
0.0000
  0
VERTEX
  8
0
 10
-0.2071
 20
0.5000
 30
0.0000
  0
VERTEX
  8
0
 10
0.2071
 20
0.5000
 30
0.0000
  0
VERTEX
  8
0
 10
0.5000
 20
0.2071
 30
0.0000
  0
VERTEX
  8
0
 10
0.5000
 20
-0.2071
 30
0.0000
  0
VERTEX
  8
0
 10
0.2071
 20
-0.5000
 30
0.0000
  0
VERTEX
  8
0
 10
-0.2071
 20
-0.5000
 30
0.0000
  0
SEQEND
  8
0
  0
ENDBLK
  8
0
  0
BLOCK
  8
0
  2
SQUAREV
 70
64
 10
0.0000
 20
0.0000
 30
0.0000
  3
SQUAREV
  0
SOLID
  8
0
 10
-0.5000
 20
-0.5000
 30
0.0000
 11
0.5000
 21
-0.5000
 31
0.0000
 12
-0.5000
 22
0.5000
 32
0.0000
 13
0.5000
 23
0.5000
 33
0.0000
  0
ENDBLK
  8
0
  0
BLOCK
  8
0
  2
ROUNDV
 70
64
 10
0.0000
 20
0.0000
 30
0.0000
  3
ROUNDV
  0
CIRCLE
  8
0
 10
0.0000
 20
0.0000
 30
0.0000
 40
0.5000
  0
ENDBLK
  8
0
  0
BLOCK
  8
0
  2
ANNULUSV
 70
64
 10
0.0000
 20
0.0000
 30
0.0000
  3
ANNULUSV
  0
CIRCLE
  8
0
 10
0.0000
 20
0.0000
 30
0.0000
 40
0.5000
  0
ENDBLK
  8
0
  0
BLOCK
  8
0
  2
THERMALV
 70
64
 10
0.0000
 20
0.0000
 30
0.0000
  3
THERMALV
  0
POLYLINE
  8
0
 66
1
 10
0.0000
 20
0.0000
 30
0.0000
 40
0.0000
 41
0.0000
 70
1
  0
VERTEX
  8
0
 10
-0.2379
 20
0.4000
 30
0.0000
  0
VERTEX
  8
0
 10
0.2379
 20
0.4000
 30
0.0000
 42
1.0000
  0
VERTEX
  8
0
 10
0.2379
 20
0.5000
 30
0.0000
  0
VERTEX
  8
0
 10
-0.2379
 20
0.5000
 30
0.0000
 42
1.0000
  0
SEQEND
  8
0
  0
POLYLINE
  8
0
 66
1
 10
0.0000
 20
0.0000
 30
0.0000
 40
0.0000
 41
0.0000
 70
1
  0
VERTEX
  8
0
 10
0.4000
 20
0.2379
 30
0.0000
  0
VERTEX
  8
0
 10
0.4000
 20
-0.2379
 30
0.0000
 42
1.0000
  0
VERTEX
  8
0
 10
0.5000
 20
-0.2379
 30
0.0000
  0
VERTEX
  8
0
 10
0.5000
 20
0.2379
 30
0.0000
 42
1.0000
  0
SEQEND
  8
0
  0
POLYLINE
  8
0
 66
1
 10
0.0000
 20
0.0000
 30
0.0000
 40
0.0000
 41
0.0000
 70
1
  0
VERTEX
  8
0
 10
0.2379
 20
-0.4000
 30
0.0000
  0
VERTEX
  8
0
 10
-0.2379
 20
-0.4000
 30
0.0000
 42
1.0000
  0
VERTEX
  8
0
 10
-0.2379
 20
-0.5000
 30
0.0000
  0
VERTEX
  8
0
 10
0.2379
 20
-0.5000
 30
0.0000
 42
1.0000
  0
SEQEND
  8
0
  0
POLYLINE
  8
0
 66
1
 10
0.0000
 20
0.0000
 30
0.0000
 40
0.0000
 41
0.0000
 70
1
  0
VERTEX
  8
0
 10
-0.4000
 20
-0.2379
 30
0.0000
  0
VERTEX
  8
0
 10
-0.4000
 20
0.2379
 30
0.0000
 42
1.0000
  0
VERTEX
  8
0
 10
-0.5000
 20
0.2379
 30
0.0000
  0
VERTEX
  8
0
 10
-0.5000
 20
-0.2379
 30
0.0000
 42
1.0000
  0
SEQEND
  8
0
  0
ENDBLK
  8
0
  0
BLOCK
  8
0
  2
LONGP100
 70
64
 10
0.0000
 20
0.0000
 30
0.0000
  3
LONGP100
  0
POLYLINE
  8
0
 66
1
 10
0.0000
 20
0.0000
 30
0.0000
 40
0.0000
 41
0.0000
 70
1
  0
VERTEX
  8
0
 10
-0.5000
 20
-0.5000
 30
0.0000
  0
VERTEX
  8
0
 10
0.5000
 20
-0.5000
 30
0.0000
 42
1.0000
  0
VERTEX
  8
0
 10
0.5000
 20
0.5000
 30
0.0000
  0
VERTEX
  8
0
 10
-0.5000
 20
0.5000
 30
0.0000
 42
1.0000
  0
SEQEND
  8
0
  0
ENDBLK
  8
0
  0
ENDSEC
  0
SECTION
  2
ENTITIES
  0
INSERT
  8
31
  2
RECT
 10
14.7000
 20
9.7500
 30
0.0000
 41
1.1000
 42
1.0000
 43
1.0000
 50
90.0000
  0
INSERT
  8
31
  2
RECT
 10
14.7000
 20
11.4500
 30
0.0000
 41
1.1000
 42
1.0000
 43
1.0000
 50
90.0000
  0
INSERT
  8
31
  2
RECT
 10
31.1000
 20
9.4000
 30
0.0000
 41
0.7000
 42
0.9000
 43
1.0000
 50
270.0000
  0
INSERT
  8
31
  2
RECT
 10
31.1000
 20
8.1000
 30
0.0000
 41
0.7000
 42
0.9000
 43
1.0000
 50
270.0000
  0
INSERT
  8
31
  2
RECT
 10
20.0000
 20
9.1500
 30
0.0000
 41
1.1000
 42
1.0000
 43
1.0000
 50
90.0000
  0
INSERT
  8
31
  2
RECT
 10
20.0000
 20
10.8500
 30
0.0000
 41
1.1000
 42
1.0000
 43
1.0000
 50
90.0000
  0
INSERT
  8
31
  2
RECT
 10
24.8500
 20
13.5000
 30
0.0000
 41
0.7000
 42
0.9000
 43
1.0000
 50
180.0000
  0
INSERT
  8
31
  2
RECT
 10
23.5500
 20
13.5000
 30
0.0000
 41
0.7000
 42
0.9000
 43
1.0000
 50
180.0000
  0
INSERT
  8
31
  2
RECT
 10
23.0000
 20
31.7500
 30
0.0000
 41
1.1000
 42
1.0000
 43
1.0000
 50
270.0000
  0
INSERT
  8
31
  2
RECT
 10
23.0000
 20
30.0500
 30
0.0000
 41
1.1000
 42
1.0000
 43
1.0000
 50
270.0000
  0
INSERT
  8
31
  2
RECT
 10
41.9500
 20
31.6000
 30
0.0000
 41
1.1000
 42
1.0000
 43
1.0000
 50
270.0000
  0
INSERT
  8
31
  2
RECT
 10
41.9500
 20
29.9000
 30
0.0000
 41
1.1000
 42
1.0000
 43
1.0000
 50
270.0000
  0
INSERT
  8
31
  2
RECT
 10
24.8500
 20
19.4500
 30
0.0000
 41
1.1000
 42
1.0000
 43
1.0000
 50
180.0000
  0
INSERT
  8
31
  2
RECT
 10
23.1500
 20
19.4500
 30
0.0000
 41
1.1000
 42
1.0000
 43
1.0000
 50
180.0000
  0
INSERT
  8
31
  2
RECT
 10
10.5000
 20
24.2500
 30
0.0000
 41
0.7000
 42
0.9000
 43
1.0000
 50
270.0000
  0
INSERT
  8
31
  2
RECT
 10
10.5000
 20
22.9500
 30
0.0000
 41
0.7000
 42
0.9000
 43
1.0000
 50
270.0000
  0
INSERT
  8
31
  2
RECT
 10
10.5000
 20
26.6500
 30
0.0000
 41
1.1000
 42
1.0000
 43
1.0000
 50
90.0000
  0
INSERT
  8
31
  2
RECT
 10
10.5000
 20
28.3500
 30
0.0000
 41
1.1000
 42
1.0000
 43
1.0000
 50
90.0000
  0
INSERT
  8
31
  2
RECT
 10
14.8000
 20
7.9500
 30
0.0000
 41
0.7000
 42
1.0000
 43
1.0000
 50
270.0000
  0
INSERT
  8
31
  2
RECT
 10
14.8000
 20
7.0000
 30
0.0000
 41
0.7000
 42
1.0000
 43
1.0000
 50
270.0000
  0
INSERT
  8
31
  2
RECT
 10
14.8000
 20
6.0500
 30
0.0000
 41
0.7000
 42
1.0000
 43
1.0000
 50
270.0000
  0
INSERT
  8
31
  2
RECT
 10
17.2000
 20
6.0500
 30
0.0000
 41
0.7000
 42
1.0000
 43
1.0000
 50
270.0000
  0
INSERT
  8
31
  2
RECT
 10
17.2000
 20
7.9500
 30
0.0000
 41
0.7000
 42
1.0000
 43
1.0000
 50
270.0000
  0
INSERT
  8
31
  2
RECT
 10
13.4000
 20
29.4050
 30
0.0000
 41
0.6000
 42
2.2000
 43
1.0000
 50
270.0000
  0
INSERT
  8
31
  2
RECT
 10
13.4000
 20
28.1350
 30
0.0000
 41
0.6000
 42
2.2000
 43
1.0000
 50
270.0000
  0
INSERT
  8
31
  2
RECT
 10
13.4000
 20
26.8650
 30
0.0000
 41
0.6000
 42
2.2000
 43
1.0000
 50
270.0000
  0
INSERT
  8
31
  2
RECT
 10
13.4000
 20
25.5950
 30
0.0000
 41
0.6000
 42
2.2000
 43
1.0000
 50
270.0000
  0
INSERT
  8
31
  2
RECT
 10
18.6000
 20
25.5950
 30
0.0000
 41
0.6000
 42
2.2000
 43
1.0000
 50
270.0000
  0
INSERT
  8
31
  2
RECT
 10
18.6000
 20
26.8650
 30
0.0000
 41
0.6000
 42
2.2000
 43
1.0000
 50
270.0000
  0
INSERT
  8
31
  2
RECT
 10
18.6000
 20
28.1350
 30
0.0000
 41
0.6000
 42
2.2000
 43
1.0000
 50
270.0000
  0
INSERT
  8
31
  2
RECT
 10
18.6000
 20
29.4050
 30
0.0000
 41
0.6000
 42
2.2000
 43
1.0000
 50
270.0000
  0
INSERT
  8
31
  2
RECT
 10
28.7000
 20
12.7074
 30
0.0000
 41
1.2700
 42
0.5588
 43
1.0000
 50
90.0000
  0
INSERT
  8
31
  2
RECT
 10
29.5000
 20
12.7074
 30
0.0000
 41
1.2700
 42
0.5588
 43
1.0000
 50
90.0000
  0
INSERT
  8
31
  2
RECT
 10
30.3000
 20
12.7074
 30
0.0000
 41
1.2700
 42
0.5588
 43
1.0000
 50
90.0000
  0
INSERT
  8
31
  2
RECT
 10
31.1000
 20
12.7074
 30
0.0000
 41
1.2700
 42
0.5588
 43
1.0000
 50
90.0000
  0
INSERT
  8
31
  2
RECT
 10
31.9000
 20
12.7074
 30
0.0000
 41
1.2700
 42
0.5588
 43
1.0000
 50
90.0000
  0
INSERT
  8
31
  2
RECT
 10
32.7000
 20
12.7074
 30
0.0000
 41
1.2700
 42
0.5588
 43
1.0000
 50
90.0000
  0
INSERT
  8
31
  2
RECT
 10
33.5000
 20
12.7074
 30
0.0000
 41
1.2700
 42
0.5588
 43
1.0000
 50
90.0000
  0
INSERT
  8
31
  2
RECT
 10
34.3000
 20
12.7074
 30
0.0000
 41
1.2700
 42
0.5588
 43
1.0000
 50
90.0000
  0
INSERT
  8
31
  2
RECT
 10
35.7926
 20
14.2000
 30
0.0000
 41
0.5588
 42
1.2700
 43
1.0000
 50
90.0000
  0
INSERT
  8
31
  2
RECT
 10
35.7926
 20
15.0000
 30
0.0000
 41
0.5588
 42
1.2700
 43
1.0000
 50
90.0000
  0
INSERT
  8
31
  2
RECT
 10
35.7926
 20
15.8000
 30
0.0000
 41
0.5588
 42
1.2700
 43
1.0000
 50
90.0000
  0
INSERT
  8
31
  2
RECT
 10
35.7926
 20
16.6000
 30
0.0000
 41
0.5588
 42
1.2700
 43
1.0000
 50
90.0000
  0
INSERT
  8
31
  2
RECT
 10
35.7926
 20
17.4000
 30
0.0000
 41
0.5588
 42
1.2700
 43
1.0000
 50
90.0000
  0
INSERT
  8
31
  2
RECT
 10
35.7926
 20
18.2000
 30
0.0000
 41
0.5588
 42
1.2700
 43
1.0000
 50
90.0000
  0
INSERT
  8
31
  2
RECT
 10
35.7926
 20
19.0000
 30
0.0000
 41
0.5588
 42
1.2700
 43
1.0000
 50
90.0000
  0
INSERT
  8
31
  2
RECT
 10
35.7926
 20
19.8000
 30
0.0000
 41
0.5588
 42
1.2700
 43
1.0000
 50
90.0000
  0
INSERT
  8
31
  2
RECT
 10
34.3000
 20
21.2926
 30
0.0000
 41
1.2700
 42
0.5588
 43
1.0000
 50
90.0000
  0
INSERT
  8
31
  2
RECT
 10
33.5000
 20
21.2926
 30
0.0000
 41
1.2700
 42
0.5588
 43
1.0000
 50
90.0000
  0
INSERT
  8
31
  2
RECT
 10
32.7000
 20
21.2926
 30
0.0000
 41
1.2700
 42
0.5588
 43
1.0000
 50
90.0000
  0
INSERT
  8
31
  2
RECT
 10
31.9000
 20
21.2926
 30
0.0000
 41
1.2700
 42
0.5588
 43
1.0000
 50
90.0000
  0
INSERT
  8
31
  2
RECT
 10
31.1000
 20
21.2926
 30
0.0000
 41
1.2700
 42
0.5588
 43
1.0000
 50
90.0000
  0
INSERT
  8
31
  2
RECT
 10
30.3000
 20
21.2926
 30
0.0000
 41
1.2700
 42
0.5588
 43
1.0000
 50
90.0000
  0
INSERT
  8
31
  2
RECT
 10
29.5000
 20
21.2926
 30
0.0000
 41
1.2700
 42
0.5588
 43
1.0000
 50
90.0000
  0
INSERT
  8
31
  2
RECT
 10
28.7000
 20
21.2926
 30
0.0000
 41
1.2700
 42
0.5588
 43
1.0000
 50
90.0000
  0
INSERT
  8
31
  2
RECT
 10
27.2074
 20
19.8000
 30
0.0000
 41
0.5588
 42
1.2700
 43
1.0000
 50
90.0000
  0
INSERT
  8
31
  2
RECT
 10
27.2074
 20
19.0000
 30
0.0000
 41
0.5588
 42
1.2700
 43
1.0000
 50
90.0000
  0
INSERT
  8
31
  2
RECT
 10
27.2074
 20
18.2000
 30
0.0000
 41
0.5588
 42
1.2700
 43
1.0000
 50
90.0000
  0
INSERT
  8
31
  2
RECT
 10
27.2074
 20
17.4000
 30
0.0000
 41
0.5588
 42
1.2700
 43
1.0000
 50
90.0000
  0
INSERT
  8
31
  2
RECT
 10
27.2074
 20
16.6000
 30
0.0000
 41
0.5588
 42
1.2700
 43
1.0000
 50
90.0000
  0
INSERT
  8
31
  2
RECT
 10
27.2074
 20
15.8000
 30
0.0000
 41
0.5588
 42
1.2700
 43
1.0000
 50
90.0000
  0
INSERT
  8
31
  2
RECT
 10
27.2074
 20
15.0000
 30
0.0000
 41
0.5588
 42
1.2700
 43
1.0000
 50
90.0000
  0
INSERT
  8
31
  2
RECT
 10
27.2074
 20
14.2000
 30
0.0000
 41
0.5588
 42
1.2700
 43
1.0000
 50
90.0000
  0
INSERT
  8
31
  2
RECT
 10
16.8000
 20
16.4000
 30
0.0000
 41
1.0000
 42
1.1000
 43
1.0000
 50
0.0000
  0
INSERT
  8
31
  2
RECT
 10
18.5000
 20
16.4000
 30
0.0000
 41
1.0000
 42
1.1000
 43
1.0000
 50
0.0000
  0
INSERT
  8
31
  2
RECT
 10
16.8000
 20
14.2500
 30
0.0000
 41
1.0000
 42
1.1000
 43
1.0000
 50
0.0000
  0
INSERT
  8
31
  2
RECT
 10
18.5000
 20
14.2500
 30
0.0000
 41
1.0000
 42
1.1000
 43
1.0000
 50
0.0000
  0
INSERT
  8
31
  2
RECT
 10
42.3500
 20
21.2500
 30
0.0000
 41
1.0000
 42
1.1000
 43
1.0000
 50
180.0000
  0
INSERT
  8
31
  2
RECT
 10
40.6500
 20
21.2500
 30
0.0000
 41
1.0000
 42
1.1000
 43
1.0000
 50
180.0000
  0
INSERT
  8
31
  2
RECT
 10
16.8500
 20
23.4000
 30
0.0000
 41
1.0000
 42
1.1000
 43
1.0000
 50
180.0000
  0
INSERT
  8
31
  2
RECT
 10
15.1500
 20
23.4000
 30
0.0000
 41
1.0000
 42
1.1000
 43
1.0000
 50
180.0000
  0
INSERT
  8
31
  2
RECT
 10
36.0000
 20
7.8500
 30
0.0000
 41
1.0000
 42
1.1000
 43
1.0000
 50
90.0000
  0
INSERT
  8
31
  2
RECT
 10
36.0000
 20
9.5500
 30
0.0000
 41
1.0000
 42
1.1000
 43
1.0000
 50
90.0000
  0
INSERT
  8
31
  2
RECT
 10
12.0000
 20
10.7500
 30
0.0000
 41
1.3000
 42
1.5000
 43
1.0000
 50
270.0000
  0
INSERT
  8
31
  2
RECT
 10
12.0000
 20
8.2500
 30
0.0000
 41
1.3000
 42
1.5000
 43
1.0000
 50
270.0000
  0
INSERT
  8
31
  2
RECT
 10
35.9500
 20
5.1000
 30
0.0000
 41
1.0000
 42
1.4000
 43
1.0000
 50
180.0000
  0
INSERT
  8
31
  2
RECT
 10
35.0000
 20
2.9000
 30
0.0000
 41
1.0000
 42
1.4000
 43
1.0000
 50
180.0000
  0
INSERT
  8
31
  2
RECT
 10
34.0500
 20
5.1000
 30
0.0000
 41
1.0000
 42
1.4000
 43
1.0000
 50
180.0000
  0
INSERT
  8
31
  2
RECT
 10
8.5000
 20
16.5000
 30
0.0000
 41
3.1000
 42
0.5000
 43
1.0000
 50
0.0000
  0
INSERT
  8
31
  2
RECT
 10
8.5000
 20
15.7000
 30
0.0000
 41
3.1000
 42
0.5000
 43
1.0000
 50
0.0000
  0
INSERT
  8
31
  2
RECT
 10
8.5000
 20
14.9000
 30
0.0000
 41
3.1000
 42
0.5000
 43
1.0000
 50
0.0000
  0
INSERT
  8
31
  2
RECT
 10
8.5000
 20
14.1000
 30
0.0000
 41
3.1000
 42
0.5000
 43
1.0000
 50
0.0000
  0
INSERT
  8
31
  2
RECT
 10
8.5000
 20
13.3000
 30
0.0000
 41
3.1000
 42
0.5000
 43
1.0000
 50
0.0000
  0
INSERT
  8
31
  2
RECT
 10
2.5000
 20
10.4500
 30
0.0000
 41
2.5000
 42
2.0000
 43
1.0000
 50
0.0000
  0
INSERT
  8
31
  2
RECT
 10
2.5000
 20
19.3500
 30
0.0000
 41
2.5000
 42
2.0000
 43
1.0000
 50
0.0000
  0
INSERT
  8
31
  2
RECT
 10
8.4000
 20
19.3500
 30
0.0000
 41
3.3000
 42
2.0000
 43
1.0000
 50
0.0000
  0
INSERT
  8
31
  2
RECT
 10
8.4000
 20
10.4500
 30
0.0000
 41
3.3000
 42
2.0000
 43
1.0000
 50
0.0000
  0
INSERT
  8
31
  2
RECT
 10
37.3260
 20
29.5000
 30
0.0000
 41
5.3340
 42
1.9304
 43
1.0000
 50
180.0000
  0
INSERT
  8
31
  2
RECT
 10
27.6740
 20
29.5000
 30
0.0000
 41
5.3340
 42
1.9304
 43
1.0000
 50
180.0000
  0
ENDSEC
  0
EOF
